<?xml version="1.0" encoding="UTF-8"?>
<!DOCTYPE svg PUBLIC "-//W3C//DTD SVG 1.1//EN" "http://www.w3.org/Graphics/SVG/1.1/DTD/svg11.dtd">
<svg xmlns="http://www.w3.org/2000/svg" version="1.1" width="682px" height="366px" style="shape-rendering:geometricPrecision; text-rendering:geometricPrecision; image-rendering:optimizeQuality; fill-rule:evenodd; clip-rule:evenodd" xmlns:xlink="http://www.w3.org/1999/xlink">
<g><path style="opacity:0.634" fill="#7d7d7d" d="M 326.5,25.5 C 326.5,42.8333 326.5,60.1667 326.5,77.5C 324.302,77.8799 322.635,77.2132 321.5,75.5C 322.167,75.5 322.833,75.5 323.5,75.5C 324.492,75.6716 325.158,75.3382 325.5,74.5C 325.17,57.9915 325.504,41.6581 326.5,25.5 Z"/></g>
<g><path style="opacity:0.025" fill="#d9d9d9" d="M 323.5,75.5 C 322.833,75.5 322.167,75.5 321.5,75.5C 310.304,69.4019 298.97,63.5685 287.5,58C 284.549,57.9779 281.883,58.8113 279.5,60.5C 277.216,60.9752 275.216,61.9752 273.5,63.5C 272.833,63.5 272.167,63.5 271.5,63.5C 275.566,59.9096 280.233,57.2429 285.5,55.5C 297.868,61.5069 310.202,67.5069 322.5,73.5C 322.863,74.1835 323.196,74.8501 323.5,75.5 Z"/></g>
<g><path style="opacity:0.998" fill="#3e3e3e" d="M 321.5,75.5 C 322.635,77.2132 324.302,77.8799 326.5,77.5C 325.737,78.2679 324.737,78.7679 323.5,79C 324.171,79.9862 324.171,81.1529 323.5,82.5C 319.063,79.6148 314.396,77.2815 309.5,75.5C 309.027,74.0937 308.027,73.427 306.5,73.5C 305.167,73.1667 303.833,72.8333 302.5,72.5C 297.273,68.7194 291.607,65.7194 285.5,63.5C 285.091,66.8555 285.758,69.8555 287.5,72.5C 286.178,72.67 285.011,72.3366 284,71.5C 283.73,68.7759 283.23,66.1092 282.5,63.5C 282.846,62.3044 283.346,62.3044 284,63.5C 284.667,62.8333 284.667,62.1667 284,61.5C 282.644,60.6198 281.144,60.2865 279.5,60.5C 281.883,58.8113 284.549,57.9779 287.5,58C 298.97,63.5685 310.304,69.4019 321.5,75.5 Z"/></g>
<g><path style="opacity:0.999" fill="#313131" d="M 279.5,60.5 C 281.144,60.2865 282.644,60.6198 284,61.5C 284.667,62.1667 284.667,62.8333 284,63.5C 283.346,62.3044 282.846,62.3044 282.5,63.5C 283.23,66.1092 283.73,68.7759 284,71.5C 285.011,72.3366 286.178,72.67 287.5,72.5C 291.806,73.9861 295.806,75.9861 299.5,78.5C 299.574,80.4109 300.574,81.5776 302.5,82C 301.956,82.7172 301.289,83.2172 300.5,83.5C 298.901,83.7678 297.568,83.4345 296.5,82.5C 296.027,81.0937 295.027,80.427 293.5,80.5C 291.146,79.9872 289.146,78.8205 287.5,77C 286.167,76.3333 284.833,76.3333 283.5,77C 274.3,82.4326 264.967,87.5992 255.5,92.5C 253.973,92.427 252.973,93.0937 252.5,94.5C 249.331,95.9166 246.331,97.5832 243.5,99.5C 242.502,122.661 242.169,145.994 242.5,169.5C 253.5,169.5 264.5,169.5 275.5,169.5C 276.494,160.014 276.827,150.348 276.5,140.5C 283.5,140.5 290.5,140.5 297.5,140.5C 297.173,150.348 297.506,160.014 298.5,169.5C 307.749,169.864 316.916,170.864 326,172.5C 326.5,172 327,171.5 327.5,171C 334.87,170.575 342.037,170.409 349,170.5C 349.348,172.14 348.848,173.473 347.5,174.5C 347.167,174.5 346.833,174.5 346.5,174.5C 341.5,174.5 336.5,174.5 331.5,174.5C 330.532,176.607 330.198,178.941 330.5,181.5C 335.316,182.326 340.316,182.826 345.5,183C 345.167,183.333 344.833,183.667 344.5,184C 345.416,184.278 346.082,184.778 346.5,185.5C 306.5,185.5 266.5,185.5 226.5,185.5C 226.5,160.167 226.5,134.833 226.5,109.5C 225.209,109.263 224.209,109.596 223.5,110.5C 222.508,110.328 221.842,110.662 221.5,111.5C 217.276,113.78 212.942,115.78 208.5,117.5C 208.17,111.132 208.504,104.798 209.5,98.5C 223.348,91.4107 237.015,84.0774 250.5,76.5C 252.848,76.4077 254.514,75.4077 255.5,73.5C 259.666,70.9159 264,68.5826 268.5,66.5C 270.434,65.8897 272.101,64.8897 273.5,63.5C 275.216,61.9752 277.216,60.9752 279.5,60.5 Z M 299.5,176.5 C 307.84,176.334 316.173,176.5 324.5,177C 323.167,177.667 323.167,178.333 324.5,179C 316.173,179.5 307.84,179.666 299.5,179.5C 299.5,178.5 299.5,177.5 299.5,176.5 Z"/></g>
<g><path style="opacity:0.999" fill="#363636" d="M 326.5,25.5 C 327.833,25.5 329.167,25.5 330.5,25.5C 330.333,43.8364 330.5,62.1697 331,80.5C 335.161,83.497 339.661,85.8303 344.5,87.5C 345.209,88.404 346.209,88.7373 347.5,88.5C 347.5,79.8333 347.5,71.1667 347.5,62.5C 348.833,62.5 350.167,62.5 351.5,62.5C 351.334,72.5056 351.5,82.5056 352,92.5C 352.671,93.2524 353.504,93.5858 354.5,93.5C 354.577,94.7498 355.244,95.5831 356.5,96C 356.167,96.3333 355.833,96.6667 355.5,97C 359.226,98.0432 358.893,98.5432 354.5,98.5C 353.791,97.596 352.791,97.2627 351.5,97.5C 351.194,100.385 351.527,103.052 352.5,105.5C 352.833,106.167 353.167,106.833 353.5,107.5C 353.577,108.75 354.244,109.583 355.5,110C 353.82,110.034 352.32,110.201 351,110.5C 350.171,130.671 350.338,150.671 351.5,170.5C 352.11,171.391 352.443,172.391 352.5,173.5C 352.5,173.833 352.5,174.167 352.5,174.5C 351.167,176.833 351.167,179.167 352.5,181.5C 392.33,182.499 432.33,182.832 472.5,182.5C 472.5,183.5 472.5,184.5 472.5,185.5C 432.33,185.168 392.33,185.501 352.5,186.5C 351.508,194.316 351.174,202.316 351.5,210.5C 350.167,210.5 348.833,210.5 347.5,210.5C 347.5,202.5 347.5,194.5 347.5,186.5C 347.5,185.833 347.167,185.5 346.5,185.5C 346.082,184.778 345.416,184.278 344.5,184C 344.833,183.667 345.167,183.333 345.5,183C 340.316,182.826 335.316,182.326 330.5,181.5C 336.167,181.5 341.833,181.5 347.5,181.5C 347.5,179.167 347.5,176.833 347.5,174.5C 348.848,173.473 349.348,172.14 349,170.5C 342.037,170.409 334.87,170.575 327.5,171C 327,171.5 326.5,172 326,172.5C 316.916,170.864 307.749,169.864 298.5,169.5C 307.682,169.827 316.682,169.493 325.5,168.5C 325.667,144.831 325.5,121.164 325,97.5C 324.617,96.944 324.117,96.6107 323.5,96.5C 323.027,95.0937 322.027,94.427 320.5,94.5C 313.722,90.8163 307.055,87.1496 300.5,83.5C 301.289,83.2172 301.956,82.7172 302.5,82C 300.574,81.5776 299.574,80.4109 299.5,78.5C 307.892,82.637 316.225,86.9704 324.5,91.5C 325.915,88.205 325.581,85.205 323.5,82.5C 324.171,81.1529 324.171,79.9862 323.5,79C 324.737,78.7679 325.737,78.2679 326.5,77.5C 326.5,60.1667 326.5,42.8333 326.5,25.5 Z M 334.5,89.5 C 335.514,90.6737 336.847,91.3404 338.5,91.5C 338.369,92.3764 338.702,93.0431 339.5,93.5C 341.167,94.1667 342.833,94.8333 344.5,95.5C 346.431,100.015 345.431,101.181 341.5,99C 337.667,97.3197 334.667,94.8197 332.5,91.5C 332.747,90.2867 333.414,89.62 334.5,89.5 Z M 344.5,108.5 C 345.487,128.424 345.821,148.424 345.5,168.5C 341.167,168.5 336.833,168.5 332.5,168.5C 332.333,146.497 332.5,124.497 333,102.5C 336.457,105.157 340.291,107.157 344.5,108.5 Z"/></g>
<g><path style="opacity:0.601" fill="#909090" d="M 353.5,91.5 C 353.833,92.1667 354.167,92.8333 354.5,93.5C 353.504,93.5858 352.671,93.2524 352,92.5C 351.5,82.5056 351.334,72.5056 351.5,62.5C 350.167,62.5 348.833,62.5 347.5,62.5C 347.5,71.1667 347.5,79.8333 347.5,88.5C 346.209,88.7373 345.209,88.404 344.5,87.5C 346.47,79.2312 347.136,70.5645 346.5,61.5C 348.5,61.5 350.5,61.5 352.5,61.5C 352.173,71.6806 352.506,81.6806 353.5,91.5 Z"/></g>
<g><path style="opacity:0.584" fill="#9e9e9e" d="M 271.5,63.5 C 272.167,63.5 272.833,63.5 273.5,63.5C 272.101,64.8897 270.434,65.8897 268.5,66.5C 268.833,65.8333 269.167,65.1667 269.5,64.5C 269.842,63.6618 270.508,63.3284 271.5,63.5 Z"/></g>
<g><path style="opacity:0.215" fill="#d7d7d7" d="M 302.5,72.5 C 297.5,70.5 292.5,68.5 287.5,66.5C 287.238,67.9778 287.571,69.3112 288.5,70.5C 299.953,76.6425 311.453,82.6425 323,88.5C 323.309,87.2341 323.809,86.0674 324.5,85C 318.667,81.9695 313,78.8029 307.5,75.5C 308.167,75.5 308.833,75.5 309.5,75.5C 314.396,77.2815 319.063,79.6148 323.5,82.5C 325.581,85.205 325.915,88.205 324.5,91.5C 316.225,86.9704 307.892,82.637 299.5,78.5C 295.806,75.9861 291.806,73.9861 287.5,72.5C 285.758,69.8555 285.091,66.8555 285.5,63.5C 291.607,65.7194 297.273,68.7194 302.5,72.5 Z"/></g>
<g><path style="opacity:0.114" fill="#eaeaea" d="M 269.5,64.5 C 269.167,65.1667 268.833,65.8333 268.5,66.5C 264,68.5826 259.666,70.9159 255.5,73.5C 254.167,73.8333 252.833,74.1667 251.5,74.5C 251.369,73.6236 251.702,72.9569 252.5,72.5C 258.34,70.0786 264.007,67.412 269.5,64.5 Z"/></g>
<g><path style="opacity:0.086" fill="#e0e0e0" d="M 353.5,91.5 C 352.506,81.6806 352.173,71.6806 352.5,61.5C 350.5,61.5 348.5,61.5 346.5,61.5C 347.136,70.5645 346.47,79.2312 344.5,87.5C 339.661,85.8303 335.161,83.497 331,80.5C 330.5,62.1697 330.333,43.8364 330.5,25.5C 329.167,25.5 327.833,25.5 326.5,25.5C 325.504,41.6581 325.17,57.9915 325.5,74.5C 324.338,58.0051 324.172,41.3384 325,24.5C 327.381,23.565 329.881,23.2317 332.5,23.5C 332.167,42.5117 332.5,61.5117 333.5,80.5C 337.443,82.3875 341.277,84.3875 345,86.5C 345.168,77.8142 345.668,69.1475 346.5,60.5C 348.5,59.1667 350.5,59.1667 352.5,60.5C 353.499,70.8119 353.832,81.1452 353.5,91.5 Z"/></g>
<g><path style="opacity:0.078" fill="#eaeaea" d="M 302.5,72.5 C 303.833,72.8333 305.167,73.1667 306.5,73.5C 306.833,74.1667 307.167,74.8333 307.5,75.5C 305.326,75.2503 303.659,74.2503 302.5,72.5 Z"/></g>
<g><path style="opacity:0.561" fill="#8c8c8c" d="M 306.5,73.5 C 308.027,73.427 309.027,74.0937 309.5,75.5C 308.833,75.5 308.167,75.5 307.5,75.5C 307.167,74.8333 306.833,74.1667 306.5,73.5 Z"/></g>
<g><path style="opacity:0.161" fill="#e0e0e0" d="M 251.5,74.5 C 251.167,75.1667 250.833,75.8333 250.5,76.5C 237.015,84.0774 223.348,91.4107 209.5,98.5C 208.504,104.798 208.17,111.132 208.5,117.5C 212.942,115.78 217.276,113.78 221.5,111.5C 221.167,112.167 220.833,112.833 220.5,113.5C 217.596,115.295 214.596,117.128 211.5,119C 209.866,119.494 208.199,119.66 206.5,119.5C 206.334,112.492 206.5,105.492 207,98.5C 221.659,90.0884 236.493,82.0884 251.5,74.5 Z"/></g>
<g><path style="opacity:0.812" fill="#676767" d="M 255.5,73.5 C 254.514,75.4077 252.848,76.4077 250.5,76.5C 250.833,75.8333 251.167,75.1667 251.5,74.5C 252.833,74.1667 254.167,73.8333 255.5,73.5 Z"/></g>
<g><path style="opacity:0.032" fill="#d1d1d1" d="M 293.5,80.5 C 293.973,81.9063 294.973,82.573 296.5,82.5C 297.568,83.4345 298.901,83.7678 300.5,83.5C 307.055,87.1496 313.722,90.8163 320.5,94.5C 320.833,95.1667 321.167,95.8333 321.5,96.5C 309.289,90.9641 297.289,84.9641 285.5,78.5C 272.669,85.7501 259.669,92.7501 246.5,99.5C 245.5,99.5 244.5,99.5 243.5,99.5C 246.331,97.5832 249.331,95.9166 252.5,94.5C 254.027,94.573 255.027,93.9063 255.5,92.5C 264.967,87.5992 274.3,82.4326 283.5,77C 284.833,76.3333 286.167,76.3333 287.5,77C 289.146,78.8205 291.146,79.9872 293.5,80.5 Z"/></g>
<g><path style="opacity:0.525" fill="#8d8d8d" d="M 293.5,80.5 C 295.027,80.427 296.027,81.0937 296.5,82.5C 294.973,82.573 293.973,81.9063 293.5,80.5 Z"/></g>
<g><path style="opacity:0.843" fill="#5c5c5c" d="M 336.5,89.5 C 335.833,89.5 335.167,89.5 334.5,89.5C 333.713,87.8958 332.38,87.2291 330.5,87.5C 330.5,89.8333 330.5,92.1667 330.5,94.5C 329.527,92.0521 329.194,89.3854 329.5,86.5C 332.631,85.9078 334.964,86.9078 336.5,89.5 Z"/></g>
<g><path style="opacity:0.021" fill="#d6d6d6" d="M 334.5,89.5 C 333.414,89.62 332.747,90.2867 332.5,91.5C 334.667,94.8197 337.667,97.3197 341.5,99C 345.431,101.181 346.431,100.015 344.5,95.5C 342.833,94.8333 341.167,94.1667 339.5,93.5C 338.702,93.0431 338.369,92.3764 338.5,91.5C 339.391,92.1098 340.391,92.4431 341.5,92.5C 343.297,93.7298 345.297,94.3964 347.5,94.5C 347.5,97.1667 347.5,99.8333 347.5,102.5C 341.46,100.647 335.793,97.98 330.5,94.5C 330.5,92.1667 330.5,89.8333 330.5,87.5C 332.38,87.2291 333.713,87.8958 334.5,89.5 Z"/></g>
<g><path style="opacity:0.486" fill="#a2a2a2" d="M 334.5,89.5 C 335.167,89.5 335.833,89.5 336.5,89.5C 338.674,89.7497 340.341,90.7497 341.5,92.5C 340.391,92.4431 339.391,92.1098 338.5,91.5C 336.847,91.3404 335.514,90.6737 334.5,89.5 Z"/></g>
<g><path style="opacity:0.447" fill="#828282" d="M 255.5,92.5 C 255.027,93.9063 254.027,94.573 252.5,94.5C 252.973,93.0937 253.973,92.427 255.5,92.5 Z"/></g>
<g><path style="opacity:0.6" fill="#858585" d="M 320.5,94.5 C 322.027,94.427 323.027,95.0937 323.5,96.5C 322.833,96.5 322.167,96.5 321.5,96.5C 321.167,95.8333 320.833,95.1667 320.5,94.5 Z"/></g>
<g><path style="opacity:0.005" fill="#f3f3f3" d="M 321.5,96.5 C 322.167,96.5 322.833,96.5 323.5,96.5C 324.117,96.6107 324.617,96.944 325,97.5C 325.5,121.164 325.667,144.831 325.5,168.5C 316.5,168.5 307.5,168.5 298.5,168.5C 298.5,158.833 298.5,149.167 298.5,139.5C 290.833,139.5 283.167,139.5 275.5,139.5C 274.833,149.167 274.167,158.833 273.5,168.5C 273.334,158.494 273.5,148.494 274,138.5C 282.415,137.517 290.915,137.183 299.5,137.5C 299.5,147.5 299.5,157.5 299.5,167.5C 307.84,167.666 316.173,167.5 324.5,167C 324.377,143.487 323.377,119.987 321.5,96.5 Z"/></g>
<g><path style="opacity:0.592" fill="#7e7e7e" d="M 354.5,98.5 C 352.656,100.279 351.99,102.612 352.5,105.5C 351.527,103.052 351.194,100.385 351.5,97.5C 352.791,97.2627 353.791,97.596 354.5,98.5 Z"/></g>
<g><path style="opacity:0.067" fill="#fefefe" d="M 243.5,99.5 C 244.5,99.5 245.5,99.5 246.5,99.5C 244.526,122.27 243.86,145.27 244.5,168.5C 243.502,145.673 243.169,122.673 243.5,99.5 Z"/></g>
<g><path style="opacity:0.145" fill="#d8d8d8" d="M 354.5,98.5 C 355.694,99.2719 356.694,100.272 357.5,101.5C 356.417,101.461 355.417,101.127 354.5,100.5C 353.386,101.723 353.219,103.056 354,104.5C 357.547,106.051 360.714,108.051 363.5,110.5C 362.833,110.5 362.167,110.5 361.5,110.5C 358.833,109.5 356.167,108.5 353.5,107.5C 353.167,106.833 352.833,106.167 352.5,105.5C 351.99,102.612 352.656,100.279 354.5,98.5 Z"/></g>
<g><path style="opacity:0.118" fill="#d6d6d6" d="M 353.5,91.5 C 374.31,101.403 394.643,112.07 414.5,123.5C 413.127,123.657 411.793,123.49 410.5,123C 391.694,113.344 373.028,103.511 354.5,93.5C 354.167,92.8333 353.833,92.1667 353.5,91.5 Z"/></g>
<g><path style="opacity:0.049" fill="#eaeaea" d="M 357.5,101.5 C 366.395,105.281 375.062,109.614 383.5,114.5C 374.279,111.223 365.612,106.889 357.5,101.5 Z"/></g>
<g><path style="opacity:0.008" fill="#fefefe" d="M 221.5,111.5 C 222.5,111.5 223.5,111.5 224.5,111.5C 224.5,136.5 224.5,161.5 224.5,186.5C 223.668,162.003 223.168,137.337 223,112.5C 222.329,113.252 221.496,113.586 220.5,113.5C 220.833,112.833 221.167,112.167 221.5,111.5 Z"/></g>
<g><path style="opacity:0.588" fill="#828282" d="M 361.5,110.5 C 362.167,110.5 362.833,110.5 363.5,110.5C 363.833,111.167 364.167,111.833 364.5,112.5C 362.973,112.573 361.973,111.906 361.5,110.5 Z"/></g>
<g><path style="opacity:0.118" fill="#dddddd" d="M 363.5,110.5 C 366.915,111.195 369.582,112.862 371.5,115.5C 369.046,114.773 366.713,113.773 364.5,112.5C 364.167,111.833 363.833,111.167 363.5,110.5 Z"/></g>
<g><path style="opacity:0.086" fill="#f0f0f0" d="M 333.5,101.5 C 335.189,102.931 337.189,103.764 339.5,104C 341.24,105.517 342.906,107.017 344.5,108.5C 340.291,107.157 336.457,105.157 333,102.5C 332.5,124.497 332.333,146.497 332.5,168.5C 331.833,157.505 331.5,146.338 331.5,135C 331.501,123.479 332.168,112.313 333.5,101.5 Z"/></g>
<g><path style="opacity:0.603" fill="#838383" d="M 354.5,112.5 C 352.513,130.803 351.846,149.47 352.5,168.5C 352.5,168.833 352.5,169.167 352.5,169.5C 351.503,150.341 351.17,131.007 351.5,111.5C 352.791,111.263 353.791,111.596 354.5,112.5 Z"/></g>
<g><path style="opacity:0.999" fill="#3e3e3e" d="M 354.5,93.5 C 373.028,103.511 391.694,113.344 410.5,123C 411.793,123.49 413.127,123.657 414.5,123.5C 422.329,129.587 430.995,134.42 440.5,138C 441.16,141.5 439.493,143 435.5,142.5C 435.5,142.167 435.5,141.833 435.5,141.5C 435.027,140.094 434.027,139.427 432.5,139.5C 427.585,136.973 422.585,134.64 417.5,132.5C 417.167,132.5 416.833,132.5 416.5,132.5C 413.322,129.742 409.655,127.742 405.5,126.5C 398.936,121.33 391.602,117.33 383.5,114.5C 375.062,109.614 366.395,105.281 357.5,101.5C 356.694,100.272 355.694,99.2719 354.5,98.5C 358.893,98.5432 359.226,98.0432 355.5,97C 355.833,96.6667 356.167,96.3333 356.5,96C 355.244,95.5831 354.577,94.7498 354.5,93.5 Z"/></g>
<g><path style="opacity:0.489" fill="#a0a0a0" d="M 333.5,101.5 C 332.168,112.313 331.501,123.479 331.5,135C 331.5,146.338 331.833,157.505 332.5,168.5C 336.833,168.5 341.167,168.5 345.5,168.5C 346.497,148.674 346.83,128.674 346.5,108.5C 347.497,128.66 347.83,148.993 347.5,169.5C 341.833,169.5 336.167,169.5 330.5,169.5C 330.5,146.5 330.5,123.5 330.5,100.5C 331.791,100.263 332.791,100.596 333.5,101.5 Z"/></g>
<g><path style="opacity:0.078" fill="#d3d3d3" d="M 371.5,115.5 C 372.873,115.343 374.207,115.51 375.5,116C 387.434,122.797 399.434,129.297 411.5,135.5C 409.784,135.371 408.117,135.038 406.5,134.5C 397.481,129.99 388.481,125.49 379.5,121C 376.593,119.391 373.927,117.558 371.5,115.5 Z"/></g>
<g><path style="opacity:0.041" fill="#dddddd" d="M 383.5,114.5 C 391.602,117.33 398.936,121.33 405.5,126.5C 398.773,123.644 392.106,120.477 385.5,117C 384.619,116.292 383.953,115.458 383.5,114.5 Z"/></g>
<g><path style="opacity:0.223" fill="#d1d1d1" d="M 221.5,111.5 C 221.842,110.662 222.508,110.328 223.5,110.5C 225.491,135.478 226.157,160.811 225.5,186.5C 225.167,186.5 224.833,186.5 224.5,186.5C 224.5,161.5 224.5,136.5 224.5,111.5C 223.5,111.5 222.5,111.5 221.5,111.5 Z"/></g>
<g><path style="opacity:0.146" fill="#dfdfdf" d="M 354.5,112.5 C 364.759,117.77 374.759,123.436 384.5,129.5C 373.846,125.09 363.679,119.756 354,113.5C 353.5,131.83 353.333,150.164 353.5,168.5C 353.167,168.5 352.833,168.5 352.5,168.5C 351.846,149.47 352.513,130.803 354.5,112.5 Z"/></g>
<g><path style="opacity:0.041" fill="#eeeeee" d="M 405.5,126.5 C 409.655,127.742 413.322,129.742 416.5,132.5C 412.345,131.258 408.678,129.258 405.5,126.5 Z"/></g>
<g><path style="opacity:0.024" fill="#d9d9d9" d="M 414.5,123.5 C 423.726,127.446 432.726,131.946 441.5,137C 443.815,139.476 443.482,141.809 440.5,144C 438.465,144.599 436.799,144.099 435.5,142.5C 439.493,143 441.16,141.5 440.5,138C 430.995,134.42 422.329,129.587 414.5,123.5 Z"/></g>
<g><path style="opacity:0.993" fill="#3d3d3d" d="M 353.5,107.5 C 356.167,108.5 358.833,109.5 361.5,110.5C 361.973,111.906 362.973,112.573 364.5,112.5C 366.713,113.773 369.046,114.773 371.5,115.5C 373.927,117.558 376.593,119.391 379.5,121C 388.481,125.49 397.481,129.99 406.5,134.5C 408.033,136.245 410.033,137.245 412.5,137.5C 412.973,138.906 413.973,139.573 415.5,139.5C 423.71,143.979 432.043,148.313 440.5,152.5C 441.731,153.651 441.731,154.817 440.5,156C 438.866,156.494 437.199,156.66 435.5,156.5C 431.274,152.512 426.274,149.845 420.5,148.5C 417.992,146.076 414.992,144.41 411.5,143.5C 407.776,140.971 403.776,138.971 399.5,137.5C 398.833,136.833 398.167,136.167 397.5,135.5C 397.027,134.094 396.027,133.427 394.5,133.5C 393.508,133.672 392.842,133.338 392.5,132.5C 390.316,130.415 387.649,129.415 384.5,129.5C 374.759,123.436 364.759,117.77 354.5,112.5C 353.791,111.596 352.791,111.263 351.5,111.5C 351.17,131.007 351.503,150.341 352.5,169.5C 352.5,169.833 352.5,170.167 352.5,170.5C 352.167,170.5 351.833,170.5 351.5,170.5C 350.338,150.671 350.171,130.671 351,110.5C 352.32,110.201 353.82,110.034 355.5,110C 354.244,109.583 353.577,108.75 353.5,107.5 Z"/></g>
<g><path style="opacity:0.025" fill="#f3f3f3" d="M 390.5,132.5 C 391.167,132.5 391.833,132.5 392.5,132.5C 392.842,133.338 393.508,133.672 394.5,133.5C 394.973,134.906 395.973,135.573 397.5,135.5C 398.167,136.167 398.833,136.833 399.5,137.5C 395.728,137.116 392.728,135.45 390.5,132.5 Z"/></g>
<g><path style="opacity:0.573" fill="#8b8b8b" d="M 394.5,133.5 C 396.027,133.427 397.027,134.094 397.5,135.5C 395.973,135.573 394.973,134.906 394.5,133.5 Z"/></g>
<g><path style="opacity:0.682" fill="#a6a6a6" d="M 384.5,129.5 C 387.649,129.415 390.316,130.415 392.5,132.5C 391.833,132.5 391.167,132.5 390.5,132.5C 388.181,132.008 386.181,131.008 384.5,129.5 Z"/></g>
<g><path style="opacity:0.38" fill="#9a9a9a" d="M 406.5,134.5 C 408.117,135.038 409.784,135.371 411.5,135.5C 411.833,136.167 412.167,136.833 412.5,137.5C 410.033,137.245 408.033,136.245 406.5,134.5 Z"/></g>
<g><path style="opacity:0.596" fill="#838383" d="M 412.5,137.5 C 414.027,137.427 415.027,138.094 415.5,139.5C 413.973,139.573 412.973,138.906 412.5,137.5 Z"/></g>
<g><path style="opacity:0.02" fill="#ebebeb" d="M 417.5,132.5 C 422.585,134.64 427.585,136.973 432.5,139.5C 432.973,140.906 433.973,141.573 435.5,141.5C 435.5,141.833 435.5,142.167 435.5,142.5C 429.776,140.14 424.109,137.473 418.5,134.5C 417.702,134.043 417.369,133.376 417.5,132.5 Z"/></g>
<g><path style="opacity:0.557" fill="#8a8a8a" d="M 432.5,139.5 C 434.027,139.427 435.027,140.094 435.5,141.5C 433.973,141.573 432.973,140.906 432.5,139.5 Z"/></g>
<g><path style="opacity:0.861" fill="#6b6b6b" d="M 275.5,139.5 C 283.167,139.5 290.833,139.5 298.5,139.5C 298.5,149.167 298.5,158.833 298.5,168.5C 307.5,168.5 316.5,168.5 325.5,168.5C 316.682,169.493 307.682,169.827 298.5,169.5C 297.506,160.014 297.173,150.348 297.5,140.5C 290.5,140.5 283.5,140.5 276.5,140.5C 276.827,150.348 276.494,160.014 275.5,169.5C 275.5,159.5 275.5,149.5 275.5,139.5 Z"/></g>
<g><path style="opacity:0.049" fill="#f2f2f2" d="M 399.5,137.5 C 403.776,138.971 407.776,140.971 411.5,143.5C 406.748,142.817 402.748,140.817 399.5,137.5 Z"/></g>
<g><path style="opacity:0.039" fill="#e8e8e8" d="M 411.5,143.5 C 414.992,144.41 417.992,146.076 420.5,148.5C 417.008,147.59 414.008,145.924 411.5,143.5 Z"/></g>
<g><path style="opacity:0.022" fill="#e6e6e6" d="M 411.5,135.5 C 421.819,140.809 432.153,146.143 442.5,151.5C 443.599,154.359 443.099,157.026 441,159.5C 438.791,159.011 436.958,158.011 435.5,156.5C 437.199,156.66 438.866,156.494 440.5,156C 441.731,154.817 441.731,153.651 440.5,152.5C 432.043,148.313 423.71,143.979 415.5,139.5C 415.027,138.094 414.027,137.427 412.5,137.5C 412.167,136.833 411.833,136.167 411.5,135.5 Z"/></g>
<g><path style="opacity:0.086" fill="#f5f5f5" d="M 344.5,108.5 C 345.167,108.5 345.833,108.5 346.5,108.5C 346.83,128.674 346.497,148.674 345.5,168.5C 345.821,148.424 345.487,128.424 344.5,108.5 Z"/></g>
<g><path style="opacity:0.125" fill="#dbdbdb" d="M 420.5,148.5 C 426.274,149.845 431.274,152.512 435.5,156.5C 429.808,154.951 424.808,152.284 420.5,148.5 Z"/></g>
<g><path style="opacity:0.307" fill="#b2b2b2" d="M 243.5,99.5 C 243.169,122.673 243.502,145.673 244.5,168.5C 254.167,168.5 263.833,168.5 273.5,168.5C 274.167,158.833 274.833,149.167 275.5,139.5C 275.5,149.5 275.5,159.5 275.5,169.5C 264.5,169.5 253.5,169.5 242.5,169.5C 242.169,145.994 242.502,122.661 243.5,99.5 Z"/></g>
<g><path style="opacity:0.298" fill="#c7c7c7" d="M 352.5,169.5 C 352.5,169.167 352.5,168.833 352.5,168.5C 352.833,168.5 353.167,168.5 353.5,168.5C 386.168,168.333 418.835,168.5 451.5,169C 452.807,170.943 452.807,172.777 451.5,174.5C 451.167,174.5 450.833,174.5 450.5,174.5C 450.5,172.833 450.5,171.167 450.5,169.5C 417.833,169.5 385.167,169.5 352.5,169.5 Z"/></g>
<g><path style="opacity:1" fill="#2d2d2d" d="M 351.5,170.5 C 351.833,170.5 352.167,170.5 352.5,170.5C 384.833,170.5 417.167,170.5 449.5,170.5C 449.5,171.5 449.5,172.5 449.5,173.5C 417.167,173.5 384.833,173.5 352.5,173.5C 352.443,172.391 352.11,171.391 351.5,170.5 Z"/></g>
<g><path style="opacity:0.796" fill="#545454" d="M 352.5,170.5 C 352.5,170.167 352.5,169.833 352.5,169.5C 385.167,169.5 417.833,169.5 450.5,169.5C 450.5,171.167 450.5,172.833 450.5,174.5C 417.833,174.5 385.167,174.5 352.5,174.5C 352.5,174.167 352.5,173.833 352.5,173.5C 384.833,173.5 417.167,173.5 449.5,173.5C 449.5,172.5 449.5,171.5 449.5,170.5C 417.167,170.5 384.833,170.5 352.5,170.5 Z"/></g>
<g><path style="opacity:0.174" fill="#d1d1d1" d="M 298.5,174.5 C 307.682,174.173 316.682,174.507 325.5,175.5C 316.651,175.174 307.984,175.507 299.5,176.5C 299.5,177.5 299.5,178.5 299.5,179.5C 307.984,180.493 316.651,180.826 325.5,180.5C 325.5,180.833 325.5,181.167 325.5,181.5C 316.5,181.5 307.5,181.5 298.5,181.5C 298.5,179.167 298.5,176.833 298.5,174.5 Z"/></g>
<g><path style="opacity:0.169" fill="#dbdbdb" d="M 352.5,174.5 C 385.167,174.5 417.833,174.5 450.5,174.5C 418.167,175.167 385.833,175.833 353.5,176.5C 353.5,177.5 353.5,178.5 353.5,179.5C 353.5,179.833 353.5,180.167 353.5,180.5C 352.539,178.735 352.205,176.735 352.5,174.5 Z"/></g>
<g><path style="opacity:0.008" fill="#fefffe" d="M 450.5,174.5 C 450.833,174.5 451.167,174.5 451.5,174.5C 451.5,175.167 451.5,175.833 451.5,176.5C 418.833,176.5 386.167,176.5 353.5,176.5C 385.833,175.833 418.167,175.167 450.5,174.5 Z"/></g>
<g><path style="opacity:0.004" fill="#fefffe" d="M 451.5,176.5 C 452.833,177.167 452.833,177.167 451.5,176.5 Z"/></g>
<g><path style="opacity:0.005" fill="#fefefe" d="M 299.5,176.5 C 307.984,175.507 316.651,175.174 325.5,175.5C 325.5,177.167 325.5,178.833 325.5,180.5C 316.651,180.826 307.984,180.493 299.5,179.5C 307.84,179.666 316.173,179.5 324.5,179C 323.167,178.333 323.167,177.667 324.5,177C 316.173,176.5 307.84,176.334 299.5,176.5 Z"/></g>
<g><path style="opacity:0.007" fill="#fcfcfc" d="M 353.5,180.5 C 353.5,180.167 353.5,179.833 353.5,179.5C 393.839,179.167 434.172,179.5 474.5,180.5C 475.833,182.833 475.833,185.167 474.5,187.5C 434.172,188.5 393.839,188.833 353.5,188.5C 393.5,187.833 433.5,187.167 473.5,186.5C 473.5,184.833 473.5,183.167 473.5,181.5C 433.67,180.501 393.67,180.168 353.5,180.5 Z"/></g>
<g><path style="opacity:0.34" fill="#b4b4b4" d="M 331.5,174.5 C 331.5,175.833 331.5,177.167 331.5,178.5C 331.5,178.833 331.5,179.167 331.5,179.5C 336.305,180.487 341.305,180.821 346.5,180.5C 346.5,178.5 346.5,176.5 346.5,174.5C 346.833,174.5 347.167,174.5 347.5,174.5C 347.5,176.833 347.5,179.167 347.5,181.5C 341.833,181.5 336.167,181.5 330.5,181.5C 330.198,178.941 330.532,176.607 331.5,174.5 Z M 331.5,179.5 C 331.5,179.167 331.5,178.833 331.5,178.5C 335.854,176.652 340.52,175.985 345.5,176.5C 345.5,177.5 345.5,178.5 345.5,179.5C 340.833,179.5 336.167,179.5 331.5,179.5 Z"/></g>
<g><path style="opacity:0.017" fill="#f5f5f5" d="M 331.5,174.5 C 336.5,174.5 341.5,174.5 346.5,174.5C 346.5,176.5 346.5,178.5 346.5,180.5C 341.305,180.821 336.305,180.487 331.5,179.5C 336.167,179.5 340.833,179.5 345.5,179.5C 345.5,178.5 345.5,177.5 345.5,176.5C 340.52,175.985 335.854,176.652 331.5,178.5C 331.5,177.167 331.5,175.833 331.5,174.5 Z"/></g>
<g><path style="opacity:0.34" fill="#b9b9b9" d="M 352.5,174.5 C 352.205,176.735 352.539,178.735 353.5,180.5C 393.67,180.168 433.67,180.501 473.5,181.5C 433.167,181.5 392.833,181.5 352.5,181.5C 351.167,179.167 351.167,176.833 352.5,174.5 Z"/></g>
<g><path style="opacity:0.817" fill="#595959" d="M 298.5,174.5 C 298.5,176.833 298.5,179.167 298.5,181.5C 307.5,181.5 316.5,181.5 325.5,181.5C 316.318,182.276 306.985,182.942 297.5,183.5C 297.19,180.287 297.523,177.287 298.5,174.5 Z"/></g>
<g><path style="opacity:0.747" fill="#676767" d="M 223.5,110.5 C 224.209,109.596 225.209,109.263 226.5,109.5C 226.5,134.833 226.5,160.167 226.5,185.5C 266.5,185.5 306.5,185.5 346.5,185.5C 347.167,185.5 347.5,185.833 347.5,186.5C 347.167,186.5 346.833,186.5 346.5,186.5C 306.167,186.5 265.833,186.5 225.5,186.5C 226.157,160.811 225.491,135.478 223.5,110.5 Z"/></g>
<g><path style="opacity:0.754" fill="#636363" d="M 352.5,181.5 C 392.833,181.5 433.167,181.5 473.5,181.5C 473.5,183.167 473.5,184.833 473.5,186.5C 433.167,186.5 392.833,186.5 352.5,186.5C 392.33,185.501 432.33,185.168 472.5,185.5C 472.5,184.5 472.5,183.5 472.5,182.5C 432.33,182.832 392.33,182.499 352.5,181.5 Z"/></g>
<g><path style="opacity:0.008" fill="#f3f3f3" d="M 224.5,186.5 C 224.833,186.5 225.167,186.5 225.5,186.5C 265.833,186.5 306.167,186.5 346.5,186.5C 346.174,195.017 346.507,203.35 347.5,211.5C 348.919,212.451 350.585,212.784 352.5,212.5C 350.44,213.811 348.274,213.811 346,212.5C 345.5,204.507 345.334,196.507 345.5,188.5C 304.82,189.161 264.486,188.494 224.5,186.5 Z"/></g>
<g><path style="opacity:0.196" fill="#dbdbdb" d="M 352.5,186.5 C 392.833,186.5 433.167,186.5 473.5,186.5C 433.5,187.167 393.5,187.833 353.5,188.5C 353.826,196.684 353.492,204.684 352.5,212.5C 350.585,212.784 348.919,212.451 347.5,211.5C 349.167,211.5 350.833,211.5 352.5,211.5C 352.5,203.167 352.5,194.833 352.5,186.5 Z"/></g>
<g><path style="opacity:0.432" fill="#9b9b9b" d="M 346.5,186.5 C 346.833,186.5 347.167,186.5 347.5,186.5C 347.5,194.5 347.5,202.5 347.5,210.5C 348.833,210.5 350.167,210.5 351.5,210.5C 351.174,202.316 351.508,194.316 352.5,186.5C 352.5,194.833 352.5,203.167 352.5,211.5C 350.833,211.5 349.167,211.5 347.5,211.5C 346.507,203.35 346.174,195.017 346.5,186.5 Z"/></g>
<g><path style="opacity:0.026" fill="#e1e1e1" d="M 241.5,248.5 C 252.144,245.322 252.144,241.822 241.5,238C 231.824,235.854 224.157,238.687 218.5,246.5C 221.443,239.261 226.943,235.595 235,235.5C 241.078,235.54 246.411,237.54 251,241.5C 250.985,245.559 249.152,248.726 245.5,251C 243.588,251.279 242.254,250.446 241.5,248.5 Z"/></g>
<g><path style="opacity:0.09" fill="#f1f1f1" d="M 305.5,237.5 C 313.323,236.344 321.323,236.177 329.5,237C 336.23,237.572 340.23,241.072 341.5,247.5C 341.167,247.5 340.833,247.5 340.5,247.5C 339.189,244.189 336.855,241.855 333.5,240.5C 331.898,238.926 329.898,238.259 327.5,238.5C 320.352,237.508 313.019,237.175 305.5,237.5 Z"/></g>
<g><path style="opacity:0.532" fill="#999999" d="M 295.5,237.5 C 295.5,240.5 295.5,243.5 295.5,246.5C 295.167,246.5 294.833,246.5 294.5,246.5C 294.5,243.833 294.5,241.167 294.5,238.5C 282.833,238.5 271.167,238.5 259.5,238.5C 259.5,241.167 259.5,243.833 259.5,246.5C 258.523,243.713 258.19,240.713 258.5,237.5C 270.833,237.5 283.167,237.5 295.5,237.5 Z"/></g>
<g><path style="opacity:0.999" fill="#353535" d="M 152.5,246.5 C 155.12,255.507 155.12,264.507 152.5,273.5C 151.094,273.973 150.427,274.973 150.5,276.5C 142.624,284.894 133.291,286.727 122.5,282C 118.066,277.947 115.066,273.114 113.5,267.5C 113.5,266.833 113.5,266.167 113.5,265.5C 112.212,243.612 122.212,234.779 143.5,239C 146.69,241.364 149.69,243.864 152.5,246.5 Z M 143.5,259.5 C 143.531,265.2 141.531,270.033 137.5,274C 135.167,274.667 132.833,274.667 130.5,274C 128.548,271.574 126.881,269.074 125.5,266.5C 124.838,260.437 126.004,254.77 129,249.5C 133.552,246.542 137.552,247.209 141,251.5C 141.782,254.31 142.616,256.977 143.5,259.5 Z"/></g>
<g><path style="opacity:0.999" fill="#373737" d="M 241.5,248.5 C 241.082,247.778 240.416,247.278 239.5,247C 236.5,246.333 233.5,246.333 230.5,247C 229.424,248.726 229.257,250.559 230,252.5C 237.184,255.509 244.018,259.176 250.5,263.5C 252.512,269.765 251.512,275.431 247.5,280.5C 245.847,280.66 244.514,281.326 243.5,282.5C 237.029,284.814 230.362,285.147 223.5,283.5C 221.849,282.03 220.015,280.697 218,279.5C 217.517,278.552 217.351,277.552 217.5,276.5C 218.833,275.5 220.167,274.5 221.5,273.5C 222.391,272.89 223.391,272.557 224.5,272.5C 225.627,273.122 226.627,273.955 227.5,275C 231.5,275.667 235.5,275.667 239.5,275C 241.298,269.685 239.298,266.852 233.5,266.5C 232.22,265.069 230.553,264.402 228.5,264.5C 221.39,260.696 218.056,254.696 218.5,246.5C 224.157,238.687 231.824,235.854 241.5,238C 252.144,241.822 252.144,245.322 241.5,248.5 Z"/></g>
<g><path style="opacity:0.943" fill="#454545" d="M 294.5,246.5 C 290.298,246.183 286.298,246.517 282.5,247.5C 281.505,259.322 281.172,271.322 281.5,283.5C 278.287,283.81 275.287,283.477 272.5,282.5C 275.167,282.5 277.833,282.5 280.5,282.5C 280.333,270.495 280.5,258.495 281,246.5C 285.066,245.536 289.233,245.203 293.5,245.5C 293.5,243.5 293.5,241.5 293.5,239.5C 282.5,239.5 271.5,239.5 260.5,239.5C 260.5,241.5 260.5,243.5 260.5,245.5C 264.971,244.911 268.971,245.577 272.5,247.5C 272.167,247.5 271.833,247.5 271.5,247.5C 267.702,246.517 263.702,246.183 259.5,246.5C 259.5,243.833 259.5,241.167 259.5,238.5C 271.167,238.5 282.833,238.5 294.5,238.5C 294.5,241.167 294.5,243.833 294.5,246.5 Z"/></g>
<g><path style="opacity:0.999" fill="#363636" d="M 432.5,238.5 C 433.398,240.627 435.064,241.794 437.5,242C 438.252,242.671 438.586,243.504 438.5,244.5C 437.171,247.48 434.837,248.813 431.5,248.5C 423.412,244.286 417.912,246.619 415,255.5C 414.833,257.167 414.667,258.833 414.5,260.5C 414.316,263.205 414.983,265.538 416.5,267.5C 417.126,270.315 418.46,272.815 420.5,275C 424.167,275.667 427.833,275.667 431.5,275C 432.646,274.355 433.646,273.522 434.5,272.5C 435.86,273.18 437.193,273.847 438.5,274.5C 438.999,279.24 436.666,282.406 431.5,284C 427.179,284.499 422.846,284.666 418.5,284.5C 417.365,282.787 415.698,282.12 413.5,282.5C 409.196,278.216 406.196,273.216 404.5,267.5C 404.178,261.346 404.845,255.346 406.5,249.5C 407.906,249.027 408.573,248.027 408.5,246.5C 414.438,238.22 422.438,235.554 432.5,238.5 Z"/></g>
<g><path style="opacity:0.043" fill="#ededed" d="M 609.5,285.5 C 609.5,285.167 609.5,284.833 609.5,284.5C 610.496,269.342 610.83,254.009 610.5,238.5C 607.038,237.518 603.371,237.185 599.5,237.5C 599.175,245.019 599.508,252.352 600.5,259.5C 600.5,260.833 600.5,262.167 600.5,263.5C 600.869,265.993 600.203,266.66 598.5,265.5C 594.825,258.123 591.158,250.789 587.5,243.5C 587.25,241.326 586.25,239.659 584.5,238.5C 581.038,237.518 577.371,237.185 573.5,237.5C 573.17,253.009 573.504,268.342 574.5,283.5C 577.287,284.477 580.287,284.81 583.5,284.5C 583.334,274.494 583.5,264.494 584,254.5C 584.383,255.056 584.883,255.389 585.5,255.5C 585.5,255.833 585.5,256.167 585.5,256.5C 586.038,258.117 586.371,259.784 586.5,261.5C 585.508,269.316 585.174,277.316 585.5,285.5C 581.167,285.5 576.833,285.5 572.5,285.5C 572.5,269.167 572.5,252.833 572.5,236.5C 577.214,236.173 581.88,236.507 586.5,237.5C 590.861,244.888 594.694,252.554 598,260.5C 598.5,252.507 598.666,244.507 598.5,236.5C 602.833,236.5 607.167,236.5 611.5,236.5C 612.152,253.201 611.485,269.534 609.5,285.5 Z"/></g>
<g><path style="opacity:0.078" fill="#d1d1d1" d="M 152.5,246.5 C 149.69,243.864 146.69,241.364 143.5,239C 122.212,234.779 112.212,243.612 113.5,265.5C 112.521,262.375 112.187,259.042 112.5,255.5C 112.997,244.997 118.33,238.497 128.5,236C 136.302,234.38 143.302,236.047 149.5,241C 150.758,242.741 151.758,244.574 152.5,246.5 Z"/></g>
<g><path style="opacity:0.861" fill="#5b5b5b" d="M 181.5,243.5 C 179.974,242.895 178.974,241.729 178.5,240C 175.518,239.502 172.518,239.335 169.5,239.5C 169.5,254.167 169.5,268.833 169.5,283.5C 169.167,283.5 168.833,283.5 168.5,283.5C 168.5,268.167 168.5,252.833 168.5,237.5C 172.226,237.177 175.893,237.511 179.5,238.5C 180.456,240.075 181.123,241.742 181.5,243.5 Z"/></g>
<g><path style="opacity:0.999" fill="#323232" d="M 193.5,283.5 C 191.318,277.968 188.652,272.634 185.5,267.5C 185.573,265.973 184.906,264.973 183.5,264.5C 183.34,262.847 182.674,261.514 181.5,260.5C 178.139,249.569 176.805,249.902 177.5,261.5C 177.5,268.833 177.5,276.167 177.5,283.5C 174.833,283.5 172.167,283.5 169.5,283.5C 169.5,268.833 169.5,254.167 169.5,239.5C 172.518,239.335 175.518,239.502 178.5,240C 178.974,241.729 179.974,242.895 181.5,243.5C 182.167,243.5 182.5,243.833 182.5,244.5C 182.755,246.967 183.755,248.967 185.5,250.5C 185.833,250.5 186.167,250.5 186.5,250.5C 187.977,254.787 189.977,258.787 192.5,262.5C 192.848,264.713 193.681,266.713 195,268.5C 195.498,265.518 195.665,262.518 195.5,259.5C 195.5,252.5 195.5,245.5 195.5,238.5C 198.167,238.5 200.833,238.5 203.5,238.5C 203.5,253.5 203.5,268.5 203.5,283.5C 200.167,283.5 196.833,283.5 193.5,283.5 Z"/></g>
<g><path style="opacity:0.999" fill="#2e2e2e" d="M 272.5,282.5 C 272.5,270.833 272.5,259.167 272.5,247.5C 268.971,245.577 264.971,244.911 260.5,245.5C 260.5,243.5 260.5,241.5 260.5,239.5C 271.5,239.5 282.5,239.5 293.5,239.5C 293.5,241.5 293.5,243.5 293.5,245.5C 289.233,245.203 285.066,245.536 281,246.5C 280.5,258.495 280.333,270.495 280.5,282.5C 277.833,282.5 275.167,282.5 272.5,282.5 Z"/></g>
<g><path style="opacity:0.999" fill="#323232" d="M 333.5,240.5 C 336.855,241.855 339.189,244.189 340.5,247.5C 342.048,254.656 340.048,260.322 334.5,264.5C 332.448,265.053 332.115,266.053 333.5,267.5C 335.902,270.914 337.902,274.58 339.5,278.5C 339.703,280.044 340.37,281.378 341.5,282.5C 338.232,283.487 334.898,283.82 331.5,283.5C 329.03,278.561 326.53,273.561 324,268.5C 321.959,267.577 319.792,267.244 317.5,267.5C 317.167,267.5 316.833,267.5 316.5,267.5C 315.513,272.305 315.179,277.305 315.5,282.5C 312.833,282.5 310.167,282.5 307.5,282.5C 307.5,268.167 307.5,253.833 307.5,239.5C 316.208,239.255 324.874,239.589 333.5,240.5 Z M 318.5,247.5 C 321.86,247.616 325.193,247.949 328.5,248.5C 329.66,256.336 326.327,259.336 318.5,257.5C 318.5,254.167 318.5,250.833 318.5,247.5 Z"/></g>
<g><path style="opacity:1" fill="#2e2e2e" d="M 482.5,239.5 C 482.5,241.833 482.5,244.167 482.5,246.5C 478.5,246.5 474.5,246.5 470.5,246.5C 469.505,258.322 469.172,270.322 469.5,282.5C 466.833,282.5 464.167,282.5 461.5,282.5C 461.828,270.322 461.495,258.322 460.5,246.5C 456.702,245.517 452.702,245.183 448.5,245.5C 448.5,243.5 448.5,241.5 448.5,239.5C 459.833,239.5 471.167,239.5 482.5,239.5 Z"/></g>
<g><path style="opacity:0.572" fill="#8f8f8f" d="M 584.5,238.5 C 581.167,238.5 577.833,238.5 574.5,238.5C 574.5,253.5 574.5,268.5 574.5,283.5C 573.504,268.342 573.17,253.009 573.5,237.5C 577.371,237.185 581.038,237.518 584.5,238.5 Z"/></g>
<g><path style="opacity:1" fill="#323232" d="M 609.5,238.5 C 609.5,253.5 609.5,268.5 609.5,283.5C 606.167,283.5 602.833,283.5 599.5,283.5C 595.578,276.658 591.912,269.658 588.5,262.5C 588.245,260.033 587.245,258.033 585.5,256.5C 585.5,256.167 585.5,255.833 585.5,255.5C 585.315,253.804 584.481,252.471 583,251.5C 582.5,261.828 582.334,272.161 582.5,282.5C 580.167,282.5 577.833,282.5 575.5,282.5C 575.5,268.167 575.5,253.833 575.5,239.5C 578.518,239.335 581.518,239.502 584.5,240C 584.974,241.729 585.974,242.895 587.5,243.5C 591.158,250.789 594.825,258.123 598.5,265.5C 598.685,267.196 599.519,268.529 601,269.5C 601.789,267.288 601.622,265.288 600.5,263.5C 600.5,262.167 600.5,260.833 600.5,259.5C 600.5,252.5 600.5,245.5 600.5,238.5C 603.5,238.5 606.5,238.5 609.5,238.5 Z"/></g>
<g><path style="opacity:1" fill="#727272" d="M 432.5,238.5 C 434.5,239.167 436.5,239.833 438.5,240.5C 439.686,241.961 439.686,243.295 438.5,244.5C 438.586,243.504 438.252,242.671 437.5,242C 435.064,241.794 433.398,240.627 432.5,238.5 Z"/></g>
<g><path style="opacity:0.338" fill="#b7b7b7" d="M 610.5,238.5 C 610.167,238.5 609.833,238.5 609.5,238.5C 606.5,238.5 603.5,238.5 600.5,238.5C 600.5,245.5 600.5,252.5 600.5,259.5C 599.508,252.352 599.175,245.019 599.5,237.5C 603.371,237.185 607.038,237.518 610.5,238.5 Z"/></g>
<g><path style="opacity:0.118" fill="#e0e0e0" d="M 438.5,240.5 C 439.649,240.791 440.316,241.624 440.5,243C 439.129,246.38 436.963,249.213 434,251.5C 432.69,250.87 431.856,249.87 431.5,248.5C 434.837,248.813 437.171,247.48 438.5,244.5C 439.686,243.295 439.686,241.961 438.5,240.5 Z"/></g>
<g><path style="opacity:0.078" fill="#eaeaea" d="M 143.5,255.5 C 143.5,256.833 143.5,258.167 143.5,259.5C 142.616,256.977 141.782,254.31 141,251.5C 137.552,247.209 133.552,246.542 129,249.5C 126.004,254.77 124.838,260.437 125.5,266.5C 124.381,261.653 124.381,256.653 125.5,251.5C 126.031,249.376 127.365,247.876 129.5,247C 137.221,245.02 141.887,247.853 143.5,255.5 Z"/></g>
<g><path style="opacity:0.035" fill="#f5f5f5" d="M 184.5,245.5 C 185.931,246.78 186.598,248.447 186.5,250.5C 186.167,250.5 185.833,250.5 185.5,250.5C 184.962,248.883 184.629,247.216 184.5,245.5 Z"/></g>
<g><path style="opacity:0.02" fill="#f6f6f6" d="M 295.5,237.5 C 283.167,237.5 270.833,237.5 258.5,237.5C 258.19,240.713 258.523,243.713 259.5,246.5C 262.962,247.482 266.629,247.815 270.5,247.5C 270.172,259.678 270.505,271.678 271.5,283.5C 274.962,284.482 278.629,284.815 282.5,284.5C 282.5,272.167 282.5,259.833 282.5,247.5C 286.298,246.517 290.298,246.183 294.5,246.5C 294.833,246.5 295.167,246.5 295.5,246.5C 291.971,248.423 287.971,249.089 283.5,248.5C 283.5,260.833 283.5,273.167 283.5,285.5C 278.833,285.5 274.167,285.5 269.5,285.5C 269.5,273.167 269.5,260.833 269.5,248.5C 265.818,248.665 262.152,248.499 258.5,248C 257.54,244.27 257.207,240.437 257.5,236.5C 270.344,236.171 283.011,236.505 295.5,237.5 Z"/></g>
<g><path style="opacity:0.02" fill="#fbfbfb" d="M 447.5,247.5 C 451.5,247.5 455.5,247.5 459.5,247.5C 459.5,259.833 459.5,272.167 459.5,284.5C 463.167,284.5 466.833,284.5 470.5,284.5C 470.833,284.5 471.167,284.5 471.5,284.5C 467.366,285.485 463.032,285.818 458.5,285.5C 458.5,273.167 458.5,260.833 458.5,248.5C 454.629,248.815 450.962,248.482 447.5,247.5 Z"/></g>
<g><path style="opacity:0.814" fill="#545454" d="M 460.5,246.5 C 461.495,258.322 461.828,270.322 461.5,282.5C 464.167,282.5 466.833,282.5 469.5,282.5C 469.172,270.322 469.505,258.322 470.5,246.5C 470.5,258.833 470.5,271.167 470.5,283.5C 467.167,283.5 463.833,283.5 460.5,283.5C 460.5,271.167 460.5,258.833 460.5,246.5 Z"/></g>
<g><path style="opacity:0.315" fill="#bebebe" d="M 470.5,246.5 C 474.5,246.5 478.5,246.5 482.5,246.5C 482.833,246.5 483.167,246.5 483.5,246.5C 479.702,247.483 475.702,247.817 471.5,247.5C 471.5,259.833 471.5,272.167 471.5,284.5C 471.167,284.5 470.833,284.5 470.5,284.5C 470.5,284.167 470.5,283.833 470.5,283.5C 470.5,271.167 470.5,258.833 470.5,246.5 Z"/></g>
<g><path style="opacity:0.341" fill="#d4d4d4" d="M 241.5,248.5 C 238.507,247.865 235.507,247.699 232.5,248C 231.483,249.049 231.316,250.216 232,251.5C 237.212,253.856 242.379,256.356 247.5,259C 249.141,260.129 250.141,261.629 250.5,263.5C 244.018,259.176 237.184,255.509 230,252.5C 229.257,250.559 229.424,248.726 230.5,247C 233.5,246.333 236.5,246.333 239.5,247C 240.416,247.278 241.082,247.778 241.5,248.5 Z"/></g>
<g><path style="opacity:0.659" fill="#7c7c7c" d="M 408.5,246.5 C 408.573,248.027 407.906,249.027 406.5,249.5C 406.427,247.973 407.094,246.973 408.5,246.5 Z"/></g>
<g><path style="opacity:0.471" fill="#9f9f9f" d="M 447.5,247.5 C 447.5,247.167 447.5,246.833 447.5,246.5C 451.833,246.5 456.167,246.5 460.5,246.5C 460.5,258.833 460.5,271.167 460.5,283.5C 463.833,283.5 467.167,283.5 470.5,283.5C 470.5,283.833 470.5,284.167 470.5,284.5C 466.833,284.5 463.167,284.5 459.5,284.5C 459.5,272.167 459.5,259.833 459.5,247.5C 455.5,247.5 451.5,247.5 447.5,247.5 Z"/></g>
<g><path style="opacity:0.045" fill="#f9f9f9" d="M 471.5,284.5 C 471.5,272.167 471.5,259.833 471.5,247.5C 475.702,247.817 479.702,247.483 483.5,246.5C 483.5,243.5 483.5,240.5 483.5,237.5C 471.322,237.172 459.322,237.505 447.5,238.5C 447.5,241.167 447.5,243.833 447.5,246.5C 447.5,246.833 447.5,247.167 447.5,247.5C 446.518,244.038 446.185,240.371 446.5,236.5C 459.171,236.333 471.838,236.5 484.5,237C 485.833,240.667 485.833,244.333 484.5,248C 480.514,248.499 476.514,248.666 472.5,248.5C 472.828,260.678 472.495,272.678 471.5,284.5 Z"/></g>
<g><path style="opacity:0.944" fill="#474747" d="M 447.5,238.5 C 459.345,238.172 471.012,238.505 482.5,239.5C 471.167,239.5 459.833,239.5 448.5,239.5C 448.5,241.5 448.5,243.5 448.5,245.5C 452.702,245.183 456.702,245.517 460.5,246.5C 456.167,246.5 451.833,246.5 447.5,246.5C 447.5,243.833 447.5,241.167 447.5,238.5 Z"/></g>
<g><path style="opacity:0.534" fill="#909090" d="M 447.5,238.5 C 459.322,237.505 471.322,237.172 483.5,237.5C 483.5,240.5 483.5,243.5 483.5,246.5C 483.167,246.5 482.833,246.5 482.5,246.5C 482.5,244.167 482.5,241.833 482.5,239.5C 471.012,238.505 459.345,238.172 447.5,238.5 Z"/></g>
<g><path style="opacity:0.651" fill="#8e8e8e" d="M 182.5,244.5 C 183.167,244.833 183.833,245.167 184.5,245.5C 184.629,247.216 184.962,248.883 185.5,250.5C 183.755,248.967 182.755,246.967 182.5,244.5 Z"/></g>
<g><path style="opacity:0.478" fill="#949494" d="M 329.5,247.5 C 325.534,246.838 321.534,246.505 317.5,246.5C 317.5,250.5 317.5,254.5 317.5,258.5C 320.167,258.5 322.833,258.5 325.5,258.5C 322.713,259.477 319.713,259.81 316.5,259.5C 316.5,254.833 316.5,250.167 316.5,245.5C 320.182,245.335 323.848,245.501 327.5,246C 328.416,246.278 329.082,246.778 329.5,247.5 Z"/></g>
<g><path style="opacity:0.542" fill="#848484" d="M 271.5,247.5 C 271.833,247.5 272.167,247.5 272.5,247.5C 272.5,259.167 272.5,270.833 272.5,282.5C 275.287,283.477 278.287,283.81 281.5,283.5C 281.172,271.322 281.505,259.322 282.5,247.5C 282.5,259.833 282.5,272.167 282.5,284.5C 278.629,284.815 274.962,284.482 271.5,283.5C 271.5,271.5 271.5,259.5 271.5,247.5 Z"/></g>
<g><path style="opacity:0.051" fill="#e9e9e9" d="M 438.5,240.5 C 436.5,239.833 434.5,239.167 432.5,238.5C 422.438,235.554 414.438,238.22 408.5,246.5C 407.094,246.973 406.427,247.973 406.5,249.5C 405.207,250.842 404.374,252.509 404,254.5C 403.186,259.02 403.353,263.354 404.5,267.5C 406.196,273.216 409.196,278.216 413.5,282.5C 408.123,279.777 404.623,275.444 403,269.5C 399.544,253.238 405.377,242.072 420.5,236C 427.439,234.324 433.439,235.824 438.5,240.5 Z"/></g>
<g><path style="opacity:0.098" fill="#f2f2f2" d="M 493.5,236.5 C 497.846,236.334 502.179,236.501 506.5,237C 507.097,238.062 507.43,239.228 507.5,240.5C 507.591,255.017 507.424,269.683 507,284.5C 502.599,285.467 498.099,285.8 493.5,285.5C 493.5,269.167 493.5,252.833 493.5,236.5 Z"/></g>
<g><path style="opacity:0.908" fill="#515151" d="M 505.5,238.5 C 505.5,253.5 505.5,268.5 505.5,283.5C 502.167,283.5 498.833,283.5 495.5,283.5C 495.5,268.5 495.5,253.5 495.5,238.5C 498.833,238.5 502.167,238.5 505.5,238.5 Z"/></g>
<g><path style="opacity:1" fill="#2d2d2d" d="M 496.5,239.5 C 499.167,239.5 501.833,239.5 504.5,239.5C 504.5,253.833 504.5,268.167 504.5,282.5C 501.833,282.5 499.167,282.5 496.5,282.5C 496.5,268.167 496.5,253.833 496.5,239.5 Z"/></g>
<g><path style="opacity:0.486" fill="#9c9c9c" d="M 505.5,238.5 C 502.167,238.5 498.833,238.5 495.5,238.5C 495.5,253.5 495.5,268.5 495.5,283.5C 498.833,283.5 502.167,283.5 505.5,283.5C 502.038,284.482 498.371,284.815 494.5,284.5C 494.5,268.833 494.5,253.167 494.5,237.5C 498.371,237.185 502.038,237.518 505.5,238.5 Z"/></g>
<g><path style="opacity:0.616" fill="#7b7b7b" d="M 609.5,238.5 C 609.833,238.5 610.167,238.5 610.5,238.5C 610.83,254.009 610.496,269.342 609.5,284.5C 605.958,284.813 602.625,284.479 599.5,283.5C 602.833,283.5 606.167,283.5 609.5,283.5C 609.5,268.5 609.5,253.5 609.5,238.5 Z"/></g>
<g><path style="opacity:0.233" fill="#b5b5b5" d="M 181.5,260.5 C 180.21,259.942 179.377,258.942 179,257.5C 178.51,258.793 178.343,260.127 178.5,261.5C 178.167,261.5 177.833,261.5 177.5,261.5C 176.805,249.902 178.139,249.569 181.5,260.5 Z"/></g>
<g><path style="opacity:0.18" fill="#ebebeb" d="M 329.5,247.5 C 331.787,252.663 330.453,256.329 325.5,258.5C 322.833,258.5 320.167,258.5 317.5,258.5C 317.5,254.5 317.5,250.5 317.5,246.5C 321.534,246.505 325.534,246.838 329.5,247.5 Z M 318.5,247.5 C 318.5,250.833 318.5,254.167 318.5,257.5C 326.327,259.336 329.66,256.336 328.5,248.5C 325.193,247.949 321.86,247.616 318.5,247.5 Z"/></g>
<g><path style="opacity:0.032" fill="#e3e3e3" d="M 431.5,248.5 C 425.925,246.378 421.425,247.711 418,252.5C 416.612,257.372 416.112,262.372 416.5,267.5C 414.983,265.538 414.316,263.205 414.5,260.5C 414.667,258.833 414.833,257.167 415,255.5C 417.912,246.619 423.412,244.286 431.5,248.5 Z"/></g>
<g><path style="opacity:0.945" fill="#4e4e4e" d="M 584.5,238.5 C 586.25,239.659 587.25,241.326 587.5,243.5C 585.974,242.895 584.974,241.729 584.5,240C 581.518,239.502 578.518,239.335 575.5,239.5C 575.5,253.833 575.5,268.167 575.5,282.5C 577.833,282.5 580.167,282.5 582.5,282.5C 582.334,272.161 582.5,261.828 583,251.5C 584.481,252.471 585.315,253.804 585.5,255.5C 584.883,255.389 584.383,255.056 584,254.5C 583.5,264.494 583.334,274.494 583.5,284.5C 580.287,284.81 577.287,284.477 574.5,283.5C 574.5,268.5 574.5,253.5 574.5,238.5C 577.833,238.5 581.167,238.5 584.5,238.5 Z"/></g>
<g><path style="opacity:0.118" fill="#e5e5e5" d="M 193.5,284.5 C 197.167,284.5 200.833,284.5 204.5,284.5C 204.5,268.833 204.5,253.167 204.5,237.5C 201.167,237.5 197.833,237.5 194.5,237.5C 194.175,245.019 194.508,252.352 195.5,259.5C 195.665,262.518 195.498,265.518 195,268.5C 193.681,266.713 192.848,264.713 192.5,262.5C 193.493,254.016 193.826,245.349 193.5,236.5C 197.767,236.203 201.934,236.536 206,237.5C 206.667,253.167 206.667,268.833 206,284.5C 201.733,285.822 197.566,285.822 193.5,284.5 Z"/></g>
<g><path style="opacity:0.382" fill="#9b9b9b" d="M 125.5,251.5 C 124.381,256.653 124.381,261.653 125.5,266.5C 125.5,267.833 125.5,269.167 125.5,270.5C 123.981,267.474 123.315,264.141 123.5,260.5C 123.667,258.167 123.833,255.833 124,253.5C 124.278,252.584 124.778,251.918 125.5,251.5 Z"/></g>
<g><path style="opacity:0.106" fill="#d8d8d8" d="M 152.5,246.5 C 154.41,247.975 155.576,249.975 156,252.5C 156.667,258.167 156.667,263.833 156,269.5C 155.576,272.025 154.41,274.025 152.5,275.5C 152.5,274.833 152.5,274.167 152.5,273.5C 155.12,264.507 155.12,255.507 152.5,246.5 Z"/></g>
<g><path style="opacity:0.049" fill="#eeeeee" d="M 186.5,250.5 C 187.15,250.804 187.817,251.137 188.5,251.5C 190.129,255.085 191.462,258.752 192.5,262.5C 189.977,258.787 187.977,254.787 186.5,250.5 Z"/></g>
<g><path style="opacity:0.173" fill="#e7e7e7" d="M 218.5,246.5 C 218.056,254.696 221.39,260.696 228.5,264.5C 218.967,261.878 215.633,255.878 218.5,246.5 Z"/></g>
<g><path style="opacity:0.255" fill="#c7c7c7" d="M 340.5,247.5 C 340.833,247.5 341.167,247.5 341.5,247.5C 341.666,251.514 341.499,255.514 341,259.5C 339.86,262.621 338.027,265.121 335.5,267C 337.904,270.975 339.904,275.142 341.5,279.5C 340.833,279.167 340.167,278.833 339.5,278.5C 337.902,274.58 335.902,270.914 333.5,267.5C 333.557,266.391 333.89,265.391 334.5,264.5C 340.048,260.322 342.048,254.656 340.5,247.5 Z"/></g>
<g><path style="opacity:0.252" fill="#c9c9c9" d="M 259.5,246.5 C 263.702,246.183 267.702,246.517 271.5,247.5C 271.5,259.5 271.5,271.5 271.5,283.5C 270.505,271.678 270.172,259.678 270.5,247.5C 266.629,247.815 262.962,247.482 259.5,246.5 Z"/></g>
<g><path style="opacity:0.537" fill="#868686" d="M 585.5,256.5 C 587.245,258.033 588.245,260.033 588.5,262.5C 587.833,262.167 587.167,261.833 586.5,261.5C 586.371,259.784 586.038,258.117 585.5,256.5 Z"/></g>
<g><path style="opacity:0.041" fill="#f9f9f9" d="M 112.5,255.5 C 112.187,259.042 112.521,262.375 113.5,265.5C 113.5,266.167 113.5,266.833 113.5,267.5C 113.5,268.5 113.5,269.5 113.5,270.5C 112.087,267.618 111.421,264.451 111.5,261C 111.506,258.967 111.839,257.134 112.5,255.5 Z"/></g>
<g><path style="opacity:0.392" fill="#9f9f9f" d="M 406.5,249.5 C 404.845,255.346 404.178,261.346 404.5,267.5C 403.353,263.354 403.186,259.02 404,254.5C 404.374,252.509 405.207,250.842 406.5,249.5 Z"/></g>
<g><path style="opacity:0.057" fill="#ececec" d="M 228.5,264.5 C 230.553,264.402 232.22,265.069 233.5,266.5C 231.447,266.598 229.78,265.931 228.5,264.5 Z"/></g>
<g><path style="opacity:0.604" fill="#7a7a7a" d="M 334.5,264.5 C 333.89,265.391 333.557,266.391 333.5,267.5C 332.115,266.053 332.448,265.053 334.5,264.5 Z"/></g>
<g><path style="opacity:0.573" fill="#878787" d="M 183.5,264.5 C 184.906,264.973 185.573,265.973 185.5,267.5C 184.094,267.027 183.427,266.027 183.5,264.5 Z"/></g>
<g><path style="opacity:0.255" fill="#d9d9d9" d="M 586.5,261.5 C 587.167,261.833 587.833,262.167 588.5,262.5C 591.912,269.658 595.578,276.658 599.5,283.5C 602.625,284.479 605.958,284.813 609.5,284.5C 609.5,284.833 609.5,285.167 609.5,285.5C 605.563,285.793 601.73,285.46 598,284.5C 593.607,277.048 589.774,269.381 586.5,261.5 Z"/></g>
<g><path style="opacity:0.388" fill="#9d9d9d" d="M 600.5,263.5 C 601.622,265.288 601.789,267.288 601,269.5C 599.519,268.529 598.685,267.196 598.5,265.5C 600.203,266.66 600.869,265.993 600.5,263.5 Z"/></g>
<g><path style="opacity:0.098" fill="#e7e7e7" d="M 184.5,245.5 C 183.833,245.167 183.167,244.833 182.5,244.5C 182.5,243.833 182.167,243.5 181.5,243.5C 181.123,241.742 180.456,240.075 179.5,238.5C 175.893,237.511 172.226,237.177 168.5,237.5C 168.5,252.833 168.5,268.167 168.5,283.5C 171.625,284.479 174.958,284.813 178.5,284.5C 178.5,276.833 178.5,269.167 178.5,261.5C 178.343,260.127 178.51,258.793 179,257.5C 179.377,258.942 180.21,259.942 181.5,260.5C 182.674,261.514 183.34,262.847 183.5,264.5C 183.427,266.027 184.094,267.027 185.5,267.5C 188.652,272.634 191.318,277.968 193.5,283.5C 193.5,283.833 193.5,284.167 193.5,284.5C 192.624,284.631 191.957,284.298 191.5,283.5C 187.834,276.022 184.001,268.689 180,261.5C 179.5,269.493 179.334,277.493 179.5,285.5C 175.167,285.5 170.833,285.5 166.5,285.5C 166.5,269.167 166.5,252.833 166.5,236.5C 171.214,236.173 175.88,236.507 180.5,237.5C 182.297,239.955 183.63,242.622 184.5,245.5 Z"/></g>
<g><path style="opacity:0.826" fill="#525252" d="M 327.5,238.5 C 329.898,238.259 331.898,238.926 333.5,240.5C 324.874,239.589 316.208,239.255 307.5,239.5C 307.5,253.833 307.5,268.167 307.5,282.5C 310.167,282.5 312.833,282.5 315.5,282.5C 315.179,277.305 315.513,272.305 316.5,267.5C 316.5,272.833 316.5,278.167 316.5,283.5C 313.167,283.5 309.833,283.5 306.5,283.5C 306.5,268.5 306.5,253.5 306.5,238.5C 313.5,238.5 320.5,238.5 327.5,238.5 Z"/></g>
<g><path style="opacity:0.196" fill="#eaeaea" d="M 250.5,263.5 C 252.113,265.428 253.113,267.762 253.5,270.5C 253.181,275.822 250.847,279.822 246.5,282.5C 246.833,281.833 247.167,281.167 247.5,280.5C 251.512,275.431 252.512,269.765 250.5,263.5 Z"/></g>
<g><path style="opacity:0.31" fill="#d2d2d2" d="M 97.5,248.5 C 90.7305,246.139 85.8972,248.139 83,254.5C 81.2181,261.883 82.7181,268.383 87.5,274C 92.6885,275.295 97.1885,274.128 101,270.5C 104.325,272.788 106.325,275.788 107,279.5C 98.3887,287.309 88.8887,288.476 78.5,283C 69.7746,275.491 66.6079,265.991 69,254.5C 72.8351,240.494 82.0018,234.327 96.5,236C 108.203,238.972 109.37,244.139 100,251.5C 98.955,250.627 98.1217,249.627 97.5,248.5 Z"/></g>
<g><path style="opacity:0.999" fill="#343434" d="M 97.5,248.5 C 90.4929,244.745 84.9929,246.411 81,253.5C 80.2106,259.237 80.5439,264.903 82,270.5C 87.4562,277.659 93.6228,278.326 100.5,272.5C 103.56,274.019 105.06,276.352 105,279.5C 89.794,288.914 78.4607,285.581 71,269.5C 70.3333,264.167 70.3333,258.833 71,253.5C 71.8984,250.931 73.065,248.598 74.5,246.5C 76.5,245.167 78.1667,243.5 79.5,241.5C 81.1209,239.883 83.1209,238.716 85.5,238C 90.2387,237.274 94.9053,237.607 99.5,239C 105.063,241.085 105.73,244.085 101.5,248C 100.207,248.49 98.8734,248.657 97.5,248.5 Z"/></g>
<g><path style="opacity:0.871" fill="#686868" d="M 79.5,241.5 C 78.1667,243.5 76.5,245.167 74.5,246.5C 75.1667,243.833 76.8333,242.167 79.5,241.5 Z"/></g>
<g><path style="opacity:0.798" fill="#686868" d="M 193.5,284.5 C 193.5,284.167 193.5,283.833 193.5,283.5C 196.833,283.5 200.167,283.5 203.5,283.5C 203.5,268.5 203.5,253.5 203.5,238.5C 200.833,238.5 198.167,238.5 195.5,238.5C 195.5,245.5 195.5,252.5 195.5,259.5C 194.508,252.352 194.175,245.019 194.5,237.5C 197.833,237.5 201.167,237.5 204.5,237.5C 204.5,253.167 204.5,268.833 204.5,284.5C 200.833,284.5 197.167,284.5 193.5,284.5 Z"/></g>
<g><path style="opacity:0.157" fill="#d2d2d2" d="M 305.5,237.5 C 313.019,237.175 320.352,237.508 327.5,238.5C 320.5,238.5 313.5,238.5 306.5,238.5C 306.5,253.5 306.5,268.5 306.5,283.5C 309.962,284.482 313.629,284.815 317.5,284.5C 317.5,278.833 317.5,273.167 317.5,267.5C 319.792,267.244 321.959,267.577 324,268.5C 326.53,273.561 329.03,278.561 331.5,283.5C 334.962,284.482 338.629,284.815 342.5,284.5C 342.5,283.5 342.5,282.5 342.5,281.5C 344.104,282.287 344.771,283.62 344.5,285.5C 339.821,285.666 335.155,285.499 330.5,285C 327.975,280.118 325.308,275.285 322.5,270.5C 321.372,269.738 320.205,269.071 319,268.5C 318.501,274.157 318.334,279.824 318.5,285.5C 314.167,285.5 309.833,285.5 305.5,285.5C 305.5,269.5 305.5,253.5 305.5,237.5 Z"/></g>
<g><path style="opacity:0.472" fill="#9b9b9b" d="M 316.5,267.5 C 316.833,267.5 317.167,267.5 317.5,267.5C 317.5,273.167 317.5,278.833 317.5,284.5C 313.629,284.815 309.962,284.482 306.5,283.5C 309.833,283.5 313.167,283.5 316.5,283.5C 316.5,278.167 316.5,272.833 316.5,267.5 Z"/></g>
<g><path style="opacity:0.31" fill="#d3d3d3" d="M 143.5,255.5 C 145.885,262.907 144.219,269.407 138.5,275C 132.858,276.533 128.524,275.033 125.5,270.5C 125.5,269.167 125.5,267.833 125.5,266.5C 126.881,269.074 128.548,271.574 130.5,274C 132.833,274.667 135.167,274.667 137.5,274C 141.531,270.033 143.531,265.2 143.5,259.5C 143.5,258.167 143.5,256.833 143.5,255.5 Z"/></g>
<g><path style="opacity:0.184" fill="#d7d7d7" d="M 233.5,266.5 C 239.298,266.852 241.298,269.685 239.5,275C 235.5,275.667 231.5,275.667 227.5,275C 226.627,273.955 225.627,273.122 224.5,272.5C 223.053,271.115 222.053,271.448 221.5,273.5C 220.167,274.5 218.833,275.5 217.5,276.5C 218.764,273.567 220.764,271.234 223.5,269.5C 227.579,273.914 232.579,275.414 238.5,274C 239.517,272.951 239.684,271.784 239,270.5C 236.985,269.303 235.151,267.97 233.5,266.5 Z"/></g>
<g><path style="opacity:0.663" fill="#818181" d="M 224.5,272.5 C 223.391,272.557 222.391,272.89 221.5,273.5C 222.053,271.448 223.053,271.115 224.5,272.5 Z"/></g>
<g><path style="opacity:0.067" fill="#dcdcdc" d="M 416.5,267.5 C 421.382,275.604 427.549,276.604 435,270.5C 437.074,271.072 438.24,272.405 438.5,274.5C 437.193,273.847 435.86,273.18 434.5,272.5C 433.646,273.522 432.646,274.355 431.5,275C 427.833,275.667 424.167,275.667 420.5,275C 418.46,272.815 417.126,270.315 416.5,267.5 Z"/></g>
<g><path style="opacity:0.565" fill="#848484" d="M 152.5,273.5 C 152.5,274.167 152.5,274.833 152.5,275.5C 151.833,275.833 151.167,276.167 150.5,276.5C 150.427,274.973 151.094,273.973 152.5,273.5 Z"/></g>
<g><path style="opacity:0.053" fill="#dcdcdc" d="M 534.5,235.5 C 549.77,233.953 558.937,240.619 562,255.5C 564.573,273.378 557.073,284.045 539.5,287.5C 534.715,285.961 530.048,284.127 525.5,282C 517.963,273.578 515.463,263.745 518,252.5C 520.386,243.616 525.886,237.949 534.5,235.5 Z M 532.5,251.5 C 536.683,246.661 541.183,246.327 546,250.5C 549.687,258.31 549.187,265.81 544.5,273C 539.903,275.54 536.07,274.707 533,270.5C 531.216,264.202 531.05,257.868 532.5,251.5 Z"/></g>
<g><path style="opacity:0.831" fill="#6f6f6f" d="M 528.5,240.5 C 526.833,242.833 524.833,244.833 522.5,246.5C 523.5,243.5 525.5,241.5 528.5,240.5 Z"/></g>
<g><path style="opacity:0.999" fill="#363636" d="M 522.5,246.5 C 524.833,244.833 526.833,242.833 528.5,240.5C 539.065,235.293 548.565,236.96 557,245.5C 562.187,256.845 561.52,267.845 555,278.5C 543.775,287.021 533.108,286.355 523,276.5C 517.33,266.418 517.163,256.418 522.5,246.5 Z M 532.5,251.5 C 531.05,257.868 531.216,264.202 533,270.5C 536.07,274.707 539.903,275.54 544.5,273C 549.187,265.81 549.687,258.31 546,250.5C 541.183,246.327 536.683,246.661 532.5,251.5 Z"/></g>
<g><path style="opacity:0.137" fill="#dfdfdf" d="M 542.5,246.5 C 545.449,247.614 547.615,249.614 549,252.5C 550.517,260.189 549.35,267.355 545.5,274C 537.074,277.974 531.908,275.474 530,266.5C 529.185,261.648 529.352,256.981 530.5,252.5C 531.167,252.167 531.833,251.833 532.5,251.5C 532.5,250.833 532.5,250.167 532.5,249.5C 532.833,248.5 533.5,247.833 534.5,247.5C 537.096,246.735 539.763,246.401 542.5,246.5 Z M 532.5,251.5 C 531.05,257.868 531.216,264.202 533,270.5C 536.07,274.707 539.903,275.54 544.5,273C 549.187,265.81 549.687,258.31 546,250.5C 541.183,246.327 536.683,246.661 532.5,251.5 Z"/></g>
<g><path style="opacity:0.525" fill="#8d8d8d" d="M 532.5,249.5 C 532.5,250.167 532.5,250.833 532.5,251.5C 531.833,251.833 531.167,252.167 530.5,252.5C 530.427,250.973 531.094,249.973 532.5,249.5 Z"/></g>
<g><path style="opacity:0.559" fill="#7d7d7d" d="M 542.5,246.5 C 539.763,246.401 537.096,246.735 534.5,247.5C 535.492,245.974 536.992,245.307 539,245.5C 540.385,245.514 541.551,245.848 542.5,246.5 Z"/></g>
<g><path style="opacity:0.595" fill="#828282" d="M 177.5,261.5 C 177.833,261.5 178.167,261.5 178.5,261.5C 178.5,269.167 178.5,276.833 178.5,284.5C 174.958,284.813 171.625,284.479 168.5,283.5C 168.833,283.5 169.167,283.5 169.5,283.5C 172.167,283.5 174.833,283.5 177.5,283.5C 177.5,276.167 177.5,268.833 177.5,261.5 Z"/></g>
<g><path style="opacity:0.169" fill="#e5e5e5" d="M 217.5,276.5 C 217.351,277.552 217.517,278.552 218,279.5C 220.015,280.697 221.849,282.03 223.5,283.5C 220.685,282.874 218.185,281.54 216,279.5C 215.415,278.002 215.915,277.002 217.5,276.5 Z"/></g>
<g><path style="opacity:0.038" fill="#e6e6e6" d="M 365.5,237.5 C 361.5,237.5 357.5,237.5 353.5,237.5C 353.173,247.348 353.506,257.014 354.5,266.5C 354.216,268.415 354.549,270.081 355.5,271.5C 356.494,275.497 358.494,278.83 361.5,281.5C 361.973,282.906 362.973,283.573 364.5,283.5C 378.699,287.741 387.366,282.741 390.5,268.5C 391.494,258.347 391.828,248.014 391.5,237.5C 387.833,237.5 384.167,237.5 380.5,237.5C 380.5,248.167 380.5,258.833 380.5,269.5C 379.857,271.076 378.857,272.41 377.5,273.5C 379.368,261.281 380.035,248.948 379.5,236.5C 383.833,236.5 388.167,236.5 392.5,236.5C 392.667,247.838 392.5,259.172 392,270.5C 390.406,277.71 386.406,283.043 380,286.5C 372.499,287.843 365.333,286.343 358.5,282C 356.437,279.489 354.937,276.656 354,273.5C 352.582,261.228 352.082,248.895 352.5,236.5C 357.032,236.182 361.366,236.515 365.5,237.5 Z"/></g>
<g><path style="opacity:0.901" fill="#4e4e4e" d="M 364.5,267.5 C 363.506,258.348 363.173,249.015 363.5,239.5C 360.833,239.5 358.167,239.5 355.5,239.5C 355.5,250.167 355.5,260.833 355.5,271.5C 354.549,270.081 354.216,268.415 354.5,266.5C 354.5,257.167 354.5,247.833 354.5,238.5C 357.833,238.5 361.167,238.5 364.5,238.5C 364.5,248.167 364.5,257.833 364.5,267.5 Z"/></g>
<g><path style="opacity:0.422" fill="#ababab" d="M 365.5,237.5 C 365.5,248.5 365.5,259.5 365.5,270.5C 364.596,269.791 364.263,268.791 364.5,267.5C 364.5,257.833 364.5,248.167 364.5,238.5C 361.167,238.5 357.833,238.5 354.5,238.5C 354.5,247.833 354.5,257.167 354.5,266.5C 353.506,257.014 353.173,247.348 353.5,237.5C 357.5,237.5 361.5,237.5 365.5,237.5 Z"/></g>
<g><path style="opacity:0.55" fill="#919191" d="M 390.5,268.5 C 390.5,258.5 390.5,248.5 390.5,238.5C 387.5,238.5 384.5,238.5 381.5,238.5C 381.828,249.014 381.494,259.347 380.5,269.5C 380.5,258.833 380.5,248.167 380.5,237.5C 384.167,237.5 387.833,237.5 391.5,237.5C 391.828,248.014 391.494,258.347 390.5,268.5 Z"/></g>
<g><path style="opacity:1" fill="#333333" d="M 390.5,268.5 C 387.366,282.741 378.699,287.741 364.5,283.5C 364.027,282.094 363.027,281.427 361.5,281.5C 358.494,278.83 356.494,275.497 355.5,271.5C 355.5,260.833 355.5,250.167 355.5,239.5C 358.167,239.5 360.833,239.5 363.5,239.5C 363.173,249.015 363.506,258.348 364.5,267.5C 364.263,268.791 364.596,269.791 365.5,270.5C 366.522,274.352 369.022,276.018 373,275.5C 374.986,275.431 376.486,274.765 377.5,273.5C 378.857,272.41 379.857,271.076 380.5,269.5C 381.494,259.347 381.828,249.014 381.5,238.5C 384.5,238.5 387.5,238.5 390.5,238.5C 390.5,248.5 390.5,258.5 390.5,268.5 Z"/></g>
<g><path style="opacity:0.034" fill="#f4f4f4" d="M 365.5,237.5 C 366.33,247.992 366.83,258.659 367,269.5C 368.916,274.535 372.416,275.868 377.5,273.5C 376.486,274.765 374.986,275.431 373,275.5C 369.022,276.018 366.522,274.352 365.5,270.5C 365.5,259.5 365.5,248.5 365.5,237.5 Z"/></g>
<g><path style="opacity:0.553" fill="#8b8b8b" d="M 247.5,280.5 C 247.167,281.167 246.833,281.833 246.5,282.5C 245.5,282.5 244.5,282.5 243.5,282.5C 244.514,281.326 245.847,280.66 247.5,280.5 Z"/></g>
<g><path style="opacity:0.125" fill="#d4d4d4" d="M 113.5,267.5 C 115.066,273.114 118.066,277.947 122.5,282C 133.291,286.727 142.624,284.894 150.5,276.5C 151.167,276.167 151.833,275.833 152.5,275.5C 149.767,281.379 145.1,284.879 138.5,286C 125.605,287.898 117.272,282.731 113.5,270.5C 113.5,269.5 113.5,268.5 113.5,267.5 Z"/></g>
<g><path style="opacity:0.149" fill="#e3e3e3" d="M 243.5,282.5 C 244.5,282.5 245.5,282.5 246.5,282.5C 245.22,283.931 243.553,284.598 241.5,284.5C 242.167,283.833 242.833,283.167 243.5,282.5 Z"/></g>
<g><path style="opacity:0.651" fill="#7c7c7c" d="M 361.5,281.5 C 363.027,281.427 364.027,282.094 364.5,283.5C 362.973,283.573 361.973,282.906 361.5,281.5 Z"/></g>
<g><path style="opacity:0.566" fill="#888888" d="M 339.5,278.5 C 340.167,278.833 340.833,279.167 341.5,279.5C 342.338,279.842 342.672,280.508 342.5,281.5C 342.5,282.5 342.5,283.5 342.5,284.5C 338.629,284.815 334.962,284.482 331.5,283.5C 334.898,283.82 338.232,283.487 341.5,282.5C 340.37,281.378 339.703,280.044 339.5,278.5 Z"/></g>
<g><path style="opacity:0.392" fill="#bebebe" d="M 413.5,282.5 C 415.698,282.12 417.365,282.787 418.5,284.5C 416.302,284.88 414.635,284.213 413.5,282.5 Z"/></g>
<g><path style="opacity:0.469" fill="#b1b1b1" d="M 243.5,282.5 C 242.833,283.167 242.167,283.833 241.5,284.5C 240.791,285.404 239.791,285.737 238.5,285.5C 235.5,285.5 232.5,285.5 229.5,285.5C 228.883,285.611 228.383,285.944 228,286.5C 226.591,285.219 225.091,284.219 223.5,283.5C 230.362,285.147 237.029,284.814 243.5,282.5 Z"/></g>
<g><path style="opacity:0.267" fill="#d0d0d0" d="M 438.5,274.5 C 440.339,275.508 441.672,277.008 442.5,279C 437.618,283.63 431.785,286.13 425,286.5C 422.456,286.664 420.29,285.997 418.5,284.5C 422.846,284.666 427.179,284.499 431.5,284C 436.666,282.406 438.999,279.24 438.5,274.5 Z"/></g>
<g><path style="opacity:0.038" fill="#fefffe" d="M 229.5,285.5 C 232.5,285.5 235.5,285.5 238.5,285.5C 237.122,286.234 235.622,286.901 234,287.5C 232.378,286.901 230.878,286.234 229.5,285.5 Z"/></g>
<g><path style="opacity:0.004" fill="#fefffe" d="M 256.5,321.5 C 255.833,320.167 255.833,320.167 256.5,321.5 Z"/></g>
<g><path style="opacity:0.182" fill="#ededed" d="M 256.5,321.5 C 261.5,321.5 266.5,321.5 271.5,321.5C 271.768,323.099 271.434,324.432 270.5,325.5C 270.5,324.5 270.5,323.5 270.5,322.5C 266.167,322.5 261.833,322.5 257.5,322.5C 257.5,329.5 257.5,336.5 257.5,343.5C 256.508,336.352 256.175,329.019 256.5,321.5 Z"/></g>
<g><path style="opacity:0.034" fill="#f2f2f2" d="M 303.5,338.5 C 305.975,339.687 306.975,341.687 306.5,344.5C 304.396,344.799 302.396,344.466 300.5,343.5C 299.167,341.167 297.833,338.833 296.5,336.5C 295.682,339.107 295.182,341.774 295,344.5C 293.542,345.747 292.042,345.747 290.5,344.5C 289.503,336.862 289.169,329.196 289.5,321.5C 294.866,321.042 300.033,321.709 305,323.5C 307.446,328.324 306.613,332.491 302.5,336C 303.252,336.671 303.586,337.504 303.5,338.5 Z M 294.5,326.5 C 295.919,325.549 297.585,325.216 299.5,325.5C 301.263,329.416 299.929,331.083 295.5,330.5C 295.768,328.901 295.434,327.568 294.5,326.5 Z"/></g>
<g><path style="opacity:0.325" fill="#d9d9d9" d="M 364.5,322.5 C 368.76,320.87 372.76,321.536 376.5,324.5C 377.127,325.417 377.461,326.417 377.5,327.5C 374.215,323.366 369.882,321.699 364.5,322.5 Z"/></g>
<g><path style="opacity:0.141" fill="#e5e5e5" d="M 410.5,321.5 C 412.467,321.261 414.301,321.594 416,322.5C 418.563,328.855 420.729,335.355 422.5,342C 422.231,343.607 421.397,344.774 420,345.5C 417.782,344.076 416.282,342.076 415.5,339.5C 413.833,338.167 412.167,338.167 410.5,339.5C 410.114,343.85 407.781,345.517 403.5,344.5C 405.227,336.652 407.56,328.986 410.5,321.5 Z M 412.5,330.5 C 415.377,332.846 415.044,333.679 411.5,333C 412.252,332.329 412.586,331.496 412.5,330.5 Z"/></g>
<g><path style="opacity:0.184" fill="#e3e3e3" d="M 441.5,325.5 C 441.5,324.5 441.5,323.5 441.5,322.5C 436.167,322.5 430.833,322.5 425.5,322.5C 425.5,323.5 425.5,324.5 425.5,325.5C 424.566,324.432 424.232,323.099 424.5,321.5C 430.5,321.5 436.5,321.5 442.5,321.5C 442.768,323.099 442.434,324.432 441.5,325.5 Z"/></g>
<g><path style="opacity:0.014" fill="#f2f2f2" d="M 448.5,321.5 C 450.467,321.261 452.301,321.594 454,322.5C 454.667,329.5 454.667,336.5 454,343.5C 452.333,344.167 450.667,344.833 449,345.5C 447.199,337.526 447.033,329.526 448.5,321.5 Z"/></g>
<g><path style="opacity:0.033" fill="#e2e2e2" d="M 466.5,322.5 C 471.296,320.626 475.463,321.626 479,325.5C 479.483,326.448 479.649,327.448 479.5,328.5C 476.634,323.57 472.301,321.57 466.5,322.5 Z"/></g>
<g><path style="opacity:0.527" fill="#999999" d="M 300.5,323.5 C 297.5,323.5 294.5,323.5 291.5,323.5C 291.17,329.868 291.504,336.202 292.5,342.5C 293.48,339.914 293.813,337.247 293.5,334.5C 295.099,334.232 296.432,334.566 297.5,335.5C 296.5,335.5 295.5,335.5 294.5,335.5C 294.5,338.167 294.5,340.833 294.5,343.5C 293.167,343.5 291.833,343.5 290.5,343.5C 290.5,336.5 290.5,329.5 290.5,322.5C 294.042,322.187 297.375,322.521 300.5,323.5 Z"/></g>
<g><path style="opacity:0.933" fill="#5b5b5b" d="M 364.5,322.5 C 369.882,321.699 374.215,323.366 377.5,327.5C 377.5,330.833 377.5,334.167 377.5,337.5C 374.633,342.596 370.3,344.429 364.5,343C 357.87,336.168 357.87,329.335 364.5,322.5 Z M 370.5,325.5 C 372.445,329.606 372.945,333.939 372,338.5C 366.738,340.58 364.238,338.746 364.5,333C 364.13,328.541 366.13,326.041 370.5,325.5 Z"/></g>
<g><path style="opacity:0.141" fill="#ededed" d="M 207.5,322.5 C 206.833,323.833 205.833,324.833 204.5,325.5C 204.5,323.5 205.5,322.5 207.5,322.5 Z"/></g>
<g><path style="opacity:0.03" fill="#ececec" d="M 229.5,322.5 C 231.223,321.193 233.057,321.193 235,322.5C 236.479,326.417 237.646,330.417 238.5,334.5C 236.683,330.889 235.016,327.222 233.5,323.5C 232.432,322.566 231.099,322.232 229.5,322.5 Z"/></g>
<g><path style="opacity:0.509" fill="#9f9f9f" d="M 270.5,325.5 C 267.833,325.5 265.167,325.5 262.5,325.5C 261.549,326.919 261.216,328.585 261.5,330.5C 264.059,330.198 266.393,330.532 268.5,331.5C 265.833,331.5 263.167,331.5 260.5,331.5C 260.5,329.167 260.5,326.833 260.5,324.5C 263.518,324.665 266.518,324.498 269.5,324C 265.848,323.501 262.182,323.335 258.5,323.5C 258.5,330.167 258.5,336.833 258.5,343.5C 258.167,343.5 257.833,343.5 257.5,343.5C 257.5,336.5 257.5,329.5 257.5,322.5C 261.833,322.5 266.167,322.5 270.5,322.5C 270.5,323.5 270.5,324.5 270.5,325.5 Z"/></g>
<g><path style="opacity:0.933" fill="#4f4f4f" d="M 300.5,323.5 C 304.254,324.828 305.421,327.494 304,331.5C 299.553,333.697 299.386,336.03 303.5,338.5C 304.038,340.117 304.371,341.784 304.5,343.5C 303.5,343.5 302.5,343.5 301.5,343.5C 301.206,340.246 299.873,337.579 297.5,335.5C 296.432,334.566 295.099,334.232 293.5,334.5C 293.813,337.247 293.48,339.914 292.5,342.5C 291.504,336.202 291.17,329.868 291.5,323.5C 294.5,323.5 297.5,323.5 300.5,323.5 Z M 294.5,326.5 C 295.919,325.549 297.585,325.216 299.5,325.5C 301.263,329.416 299.929,331.083 295.5,330.5C 295.768,328.901 295.434,327.568 294.5,326.5 Z"/></g>
<g><path style="opacity:0.301" fill="#b3b3b3" d="M 299.5,325.5 C 297.585,325.216 295.919,325.549 294.5,326.5C 294.5,328.167 294.5,329.833 294.5,331.5C 296.5,331.5 298.5,331.5 300.5,331.5C 298.393,332.468 296.059,332.802 293.5,332.5C 293.5,329.833 293.5,327.167 293.5,324.5C 295.735,324.205 297.735,324.539 299.5,325.5 Z"/></g>
<g><path style="opacity:0.493" fill="#a8a8a8" d="M 441.5,325.5 C 439.5,325.5 437.5,325.5 435.5,325.5C 435.167,325.5 434.833,325.5 434.5,325.5C 436.292,324.691 438.292,324.191 440.5,324C 430.83,323.203 428.163,323.369 432.5,324.5C 431.88,330.926 432.547,336.926 434.5,342.5C 433.791,343.404 432.791,343.737 431.5,343.5C 430.51,337.69 430.177,331.69 430.5,325.5C 428.833,325.5 427.167,325.5 425.5,325.5C 425.5,324.5 425.5,323.5 425.5,322.5C 430.833,322.5 436.167,322.5 441.5,322.5C 441.5,323.5 441.5,324.5 441.5,325.5 Z"/></g>
<g><path style="opacity:0.018" fill="#ebebeb" d="M 242.5,336.5 C 242.366,334.708 242.699,333.042 243.5,331.5C 244.483,335.298 244.817,339.298 244.5,343.5C 245.791,343.737 246.791,343.404 247.5,342.5C 247.5,335.833 247.5,329.167 247.5,322.5C 246.209,322.263 245.209,322.596 244.5,323.5C 243.211,327.044 241.544,330.377 239.5,333.5C 240.095,329.385 241.095,325.385 242.5,321.5C 244.792,321.244 246.959,321.577 249,322.5C 249.667,329.5 249.667,336.5 249,343.5C 247.561,345.014 246.061,345.347 244.5,344.5C 243.832,341.694 243.166,339.028 242.5,336.5 Z"/></g>
<g><path style="opacity:0.931" fill="#404040" d="M 434.5,325.5 C 434.5,331.167 434.5,336.833 434.5,342.5C 432.547,336.926 431.88,330.926 432.5,324.5C 428.163,323.369 430.83,323.203 440.5,324C 438.292,324.191 436.292,324.691 434.5,325.5 Z"/></g>
<g><path style="opacity:0.194" fill="#e9e9e9" d="M 496.5,329.5 C 495.167,328.167 493.833,326.833 492.5,325.5C 492.672,324.508 492.338,323.842 491.5,323.5C 490.791,322.596 489.791,322.263 488.5,322.5C 488.5,329.5 488.5,336.5 488.5,343.5C 489.5,343.5 490.5,343.5 491.5,343.5C 491.334,338.489 491.501,333.489 492,328.5C 492.852,329.571 493.685,330.571 494.5,331.5C 496.307,335.114 498.14,338.78 500,342.5C 501.011,343.337 502.178,343.67 503.5,343.5C 503.5,336.833 503.5,330.167 503.5,323.5C 502.791,322.596 501.791,322.263 500.5,322.5C 500.819,327.363 500.486,332.03 499.5,336.5C 499.068,335.29 498.401,334.29 497.5,333.5C 497.5,332.833 497.5,332.167 497.5,331.5C 498.117,331.611 498.617,331.944 499,332.5C 499.499,328.848 499.665,325.182 499.5,321.5C 501.766,321.141 503.599,321.808 505,323.5C 505.667,330.167 505.667,336.833 505,343.5C 503.412,345.968 501.578,346.134 499.5,344C 496.94,340.378 494.773,336.545 493,332.5C 492.501,336.486 492.334,340.486 492.5,344.5C 490.833,344.5 489.167,344.5 487.5,344.5C 487.5,336.833 487.5,329.167 487.5,321.5C 492.944,321.271 495.944,323.938 496.5,329.5 Z"/></g>
<g><path style="opacity:0.094" fill="#eaeaea" d="M 299.5,325.5 C 300.693,325.97 301.36,326.97 301.5,328.5C 301.48,329.726 301.147,330.726 300.5,331.5C 298.5,331.5 296.5,331.5 294.5,331.5C 294.5,329.833 294.5,328.167 294.5,326.5C 295.434,327.568 295.768,328.901 295.5,330.5C 299.929,331.083 301.263,329.416 299.5,325.5 Z"/></g>
<g><path style="opacity:0.014" fill="#f3f3f3" d="M 377.5,327.5 C 378.117,327.611 378.617,327.944 379,328.5C 379.667,331.167 379.667,333.833 379,336.5C 378.617,337.056 378.117,337.389 377.5,337.5C 377.5,334.167 377.5,330.833 377.5,327.5 Z"/></g>
<g><path style="opacity:0.617" fill="#6b6b6b" d="M 449.5,322.5 C 450.5,322.5 451.5,322.5 452.5,322.5C 452.5,329.5 452.5,336.5 452.5,343.5C 451.5,343.5 450.5,343.5 449.5,343.5C 449.5,336.5 449.5,329.5 449.5,322.5 Z"/></g>
<g><path style="opacity:0.908" fill="#585858" d="M 466.5,322.5 C 472.301,321.57 476.634,323.57 479.5,328.5C 480.627,334.734 478.627,339.568 473.5,343C 465.738,344.083 461.738,340.583 461.5,332.5C 461.579,328.342 463.245,325.009 466.5,322.5 Z M 468.5,325.5 C 469.833,325.5 471.167,325.5 472.5,325.5C 472.685,327.196 473.519,328.529 475,329.5C 475.497,331.81 475.663,334.143 475.5,336.5C 474.662,336.842 474.328,337.508 474.5,338.5C 471.833,339.833 469.167,339.833 466.5,338.5C 464.761,333.791 465.428,329.458 468.5,325.5 Z"/></g>
<g><path style="opacity:0.801" fill="#5c5c5c" d="M 233.5,323.5 C 235.016,327.222 236.683,330.889 238.5,334.5C 238.527,336.199 239.194,337.533 240.5,338.5C 240.179,340.048 239.179,340.715 237.5,340.5C 237.02,337.557 236.02,334.89 234.5,332.5C 234.291,331.078 233.791,329.745 233,328.5C 232.828,333.202 232.328,337.868 231.5,342.5C 230.504,336.202 230.17,329.868 230.5,323.5C 231.5,323.5 232.5,323.5 233.5,323.5 Z"/></g>
<g><path style="opacity:0.034" fill="#dcdcdc" d="M 370.5,325.5 C 372.017,325.511 373.184,326.177 374,327.5C 374.886,331.866 374.386,336.033 372.5,340C 368.338,342.572 365.172,341.738 363,337.5C 362.333,334.167 362.333,330.833 363,327.5C 365.07,324.592 367.57,323.926 370.5,325.5 Z M 370.5,325.5 C 366.13,326.041 364.13,328.541 364.5,333C 364.238,338.746 366.738,340.58 372,338.5C 372.945,333.939 372.445,329.606 370.5,325.5 Z"/></g>
<g><path style="opacity:0.325" fill="#cccccc" d="M 472.5,325.5 C 474.113,325.944 475.28,326.944 476,328.5C 476.801,331.367 476.634,334.034 475.5,336.5C 475.663,334.143 475.497,331.81 475,329.5C 473.519,328.529 472.685,327.196 472.5,325.5 Z"/></g>
<g><path style="opacity:0.065" fill="#e4e4e4" d="M 334.5,321.5 C 336.199,321.34 337.866,321.506 339.5,322C 341.207,325.248 343.04,328.415 345,331.5C 345.498,328.183 345.665,324.85 345.5,321.5C 347.792,321.244 349.959,321.577 352,322.5C 352.667,329.5 352.667,336.5 352,343.5C 349.911,345.959 347.745,345.959 345.5,343.5C 343.921,340.006 342.087,336.673 340,333.5C 339.501,337.152 339.335,340.818 339.5,344.5C 337.833,344.5 336.167,344.5 334.5,344.5C 333.655,336.762 333.655,329.096 334.5,321.5 Z"/></g>
<g><path style="opacity:0.914" fill="#515151" d="M 346.5,337.5 C 346.56,338.043 346.893,338.376 347.5,338.5C 348.329,333.533 348.829,328.533 349,323.5C 349.167,326.667 349.333,329.833 349.5,333C 349.485,336.576 348.818,339.742 347.5,342.5C 345.084,337.999 342.417,333.666 339.5,329.5C 339.217,328.711 338.717,328.044 338,327.5C 337.501,332.823 337.334,338.156 337.5,343.5C 335.539,336.913 334.872,329.913 335.5,322.5C 336.822,322.33 337.989,322.663 339,323.5C 341.758,328.075 344.258,332.742 346.5,337.5 Z"/></g>
<g><path style="opacity:0.004" fill="#fefffe" d="M 343.5,325.5 C 344.833,326.167 344.833,326.167 343.5,325.5 Z"/></g>
<g><path style="opacity:0.141" fill="#efefef" d="M 194.5,343.5 C 194.824,336.646 194.491,329.979 193.5,323.5C 192.791,322.596 191.791,322.263 190.5,322.5C 190.5,325.167 190.5,327.833 190.5,330.5C 187.833,330.5 185.167,330.5 182.5,330.5C 182.802,327.941 182.468,325.607 181.5,323.5C 180.791,322.596 179.791,322.263 178.5,322.5C 178.5,329.5 178.5,336.5 178.5,343.5C 179.5,343.5 180.5,343.5 181.5,343.5C 181.833,343.5 182.167,343.5 182.5,343.5C 181.081,344.451 179.415,344.784 177.5,344.5C 177.5,336.833 177.5,329.167 177.5,321.5C 179.467,321.261 181.301,321.594 183,322.5C 183.497,324.81 183.663,327.143 183.5,329.5C 185.5,329.5 187.5,329.5 189.5,329.5C 189.5,326.833 189.5,324.167 189.5,321.5C 191.467,321.261 193.301,321.594 195,322.5C 195.821,329.679 195.655,336.679 194.5,343.5 Z"/></g>
<g><path style="opacity:0.337" fill="#b3b3b3" d="M 193.5,323.5 C 191.631,325.635 190.964,328.302 191.5,331.5C 188.167,331.5 184.833,331.5 181.5,331.5C 181.5,328.833 181.5,326.167 181.5,323.5C 182.468,325.607 182.802,327.941 182.5,330.5C 185.167,330.5 187.833,330.5 190.5,330.5C 190.5,327.833 190.5,325.167 190.5,322.5C 191.791,322.263 192.791,322.596 193.5,323.5 Z"/></g>
<g><path style="opacity:0.57" fill="#7e7e7e" d="M 181.5,323.5 C 181.5,326.167 181.5,328.833 181.5,331.5C 180.683,329.031 180.183,326.365 180,323.5C 179.333,329.833 179.333,336.167 180,342.5C 180.181,339.305 180.681,336.305 181.5,333.5C 181.5,336.833 181.5,340.167 181.5,343.5C 180.5,343.5 179.5,343.5 178.5,343.5C 178.5,336.5 178.5,329.5 178.5,322.5C 179.791,322.263 180.791,322.596 181.5,323.5 Z"/></g>
<g><path style="opacity:0.827" fill="#595959" d="M 503.5,323.5 C 503.5,330.167 503.5,336.833 503.5,343.5C 502.178,343.67 501.011,343.337 500,342.5C 498.14,338.78 496.307,335.114 494.5,331.5C 494.435,331.062 494.601,330.728 495,330.5C 495.852,331.571 496.685,332.571 497.5,333.5C 498.401,334.29 499.068,335.29 499.5,336.5C 499.369,337.376 499.702,338.043 500.5,338.5C 500.869,333.1 501.869,328.1 503.5,323.5 Z"/></g>
<g><path style="opacity:0.016" fill="#e9e9e9" d="M 234.5,332.5 C 236.02,334.89 237.02,337.557 237.5,340.5C 239.179,340.715 240.179,340.048 240.5,338.5C 241.167,338.167 241.833,337.833 242.5,337.5C 242.442,341.788 240.442,343.121 236.5,341.5C 235.846,339.885 235.346,338.218 235,336.5C 234.814,339.036 234.314,341.369 233.5,343.5C 233.185,339.629 233.518,335.962 234.5,332.5 Z"/></g>
<g><path style="opacity:0.214" fill="#d3d3d3" d="M 468.5,325.5 C 465.428,329.458 464.761,333.791 466.5,338.5C 465.883,338.389 465.383,338.056 465,337.5C 464.333,334.167 464.333,330.833 465,327.5C 465.816,326.177 466.983,325.511 468.5,325.5 Z"/></g>
<g><path style="opacity:0.753" fill="#767676" d="M 244.5,323.5 C 244.833,324.833 245.167,326.167 245.5,327.5C 243.896,328.287 243.229,329.62 243.5,331.5C 242.699,333.042 242.366,334.708 242.5,336.5C 242.5,336.833 242.5,337.167 242.5,337.5C 241.833,337.833 241.167,338.167 240.5,338.5C 239.194,337.533 238.527,336.199 238.5,334.5C 239.167,334.5 239.5,334.167 239.5,333.5C 241.544,330.377 243.211,327.044 244.5,323.5 Z"/></g>
<g><path style="opacity:0.022" fill="#f9f9f9" d="M 326.5,325.5 C 326.5,324.5 326.5,323.5 326.5,322.5C 322.167,322.5 317.833,322.5 313.5,322.5C 313.175,329.687 313.509,336.687 314.5,343.5C 318.167,343.5 321.833,343.5 325.5,343.5C 326.404,342.791 326.737,341.791 326.5,340.5C 323.5,340.5 320.5,340.5 317.5,340.5C 317.5,338.5 317.5,336.5 317.5,334.5C 320.059,334.802 322.393,334.468 324.5,333.5C 324.5,332.833 324.5,332.167 324.5,331.5C 322.393,330.532 320.059,330.198 317.5,330.5C 317.216,328.585 317.549,326.919 318.5,325.5C 318.5,326.833 318.5,328.167 318.5,329.5C 320.833,329.5 323.167,329.5 325.5,329.5C 325.5,331.5 325.5,333.5 325.5,335.5C 323.167,335.5 320.833,335.5 318.5,335.5C 318.5,336.833 318.5,338.167 318.5,339.5C 321.5,339.5 324.5,339.5 327.5,339.5C 327.5,341.167 327.5,342.833 327.5,344.5C 322.5,344.5 317.5,344.5 312.5,344.5C 312.525,337.319 312.191,330.152 311.5,323C 316.645,321.554 321.979,321.054 327.5,321.5C 327.768,323.099 327.434,324.432 326.5,325.5 Z"/></g>
<g><path style="opacity:0.503" fill="#9f9f9f" d="M 326.5,325.5 C 323.833,325.5 321.167,325.5 318.5,325.5C 317.549,326.919 317.216,328.585 317.5,330.5C 320.059,330.198 322.393,330.532 324.5,331.5C 321.833,331.5 319.167,331.5 316.5,331.5C 316.5,329.167 316.5,326.833 316.5,324.5C 319.518,324.665 322.518,324.498 325.5,324C 321.848,323.501 318.182,323.335 314.5,323.5C 314.5,330.167 314.5,336.833 314.5,343.5C 313.509,336.687 313.175,329.687 313.5,322.5C 317.833,322.5 322.167,322.5 326.5,322.5C 326.5,323.5 326.5,324.5 326.5,325.5 Z"/></g>
<g><path style="opacity:0.917" fill="#4b4b4b" d="M 324.5,331.5 C 324.5,332.167 324.5,332.833 324.5,333.5C 321.833,333.5 319.167,333.5 316.5,333.5C 316.5,336.167 316.5,338.833 316.5,341.5C 320.012,340.945 323.012,341.612 325.5,343.5C 321.833,343.5 318.167,343.5 314.5,343.5C 314.5,336.833 314.5,330.167 314.5,323.5C 318.182,323.335 321.848,323.501 325.5,324C 322.518,324.498 319.518,324.665 316.5,324.5C 316.5,326.833 316.5,329.167 316.5,331.5C 319.167,331.5 321.833,331.5 324.5,331.5 Z"/></g>
<g><path style="opacity:0.3" fill="#c9c9c9" d="M 434.5,325.5 C 434.833,325.5 435.167,325.5 435.5,325.5C 435.5,331.833 435.5,338.167 435.5,344.5C 433.901,344.768 432.568,344.434 431.5,343.5C 432.791,343.737 433.791,343.404 434.5,342.5C 434.5,336.833 434.5,331.167 434.5,325.5 Z"/></g>
<g><path style="opacity:0.498" fill="#959595" d="M 503.5,323.5 C 501.869,328.1 500.869,333.1 500.5,338.5C 499.702,338.043 499.369,337.376 499.5,336.5C 500.486,332.03 500.819,327.363 500.5,322.5C 501.791,322.263 502.791,322.596 503.5,323.5 Z"/></g>
<g><path style="opacity:0.019" fill="#fbfbfb" d="M 194.5,343.5 C 193.081,344.451 191.415,344.784 189.5,344.5C 189.5,341.5 189.5,338.5 189.5,335.5C 187.5,335.5 185.5,335.5 183.5,335.5C 183.806,338.385 183.473,341.052 182.5,343.5C 182.5,340.5 182.5,337.5 182.5,334.5C 185.167,334.5 187.833,334.5 190.5,334.5C 190.5,337.5 190.5,340.5 190.5,343.5C 191.833,343.5 193.167,343.5 194.5,343.5 Z"/></g>
<g><path style="opacity:0.868" fill="#515151" d="M 268.5,331.5 C 268.5,332.167 268.5,332.833 268.5,333.5C 265.833,333.5 263.167,333.5 260.5,333.5C 260.5,336.167 260.5,338.833 260.5,341.5C 264.012,340.945 267.012,341.612 269.5,343.5C 265.833,343.5 262.167,343.5 258.5,343.5C 258.5,336.833 258.5,330.167 258.5,323.5C 262.182,323.335 265.848,323.501 269.5,324C 266.518,324.498 263.518,324.665 260.5,324.5C 260.5,326.833 260.5,329.167 260.5,331.5C 263.167,331.5 265.833,331.5 268.5,331.5 Z"/></g>
<g><path style="opacity:0.467" fill="#9c9c9c" d="M 339.5,329.5 C 338.833,334.167 338.167,338.833 337.5,343.5C 337.334,338.156 337.501,332.823 338,327.5C 338.717,328.044 339.217,328.711 339.5,329.5 Z"/></g>
<g><path style="opacity:0.86" fill="#5d5d5d" d="M 411.5,322.5 C 412.822,322.33 413.989,322.663 415,323.5C 417.318,329.767 419.485,336.101 421.5,342.5C 420.675,343.386 419.675,343.719 418.5,343.5C 418.167,341.5 417.833,339.5 417.5,337.5C 414.428,337.183 411.428,337.516 408.5,338.5C 406.322,344.89 405.489,344.89 406,338.5C 407.54,332.976 409.374,327.642 411.5,322.5 Z M 412.5,330.5 C 412.586,331.496 412.252,332.329 411.5,333C 415.044,333.679 415.377,332.846 412.5,330.5 Z"/></g>
<g><path style="opacity:0.094" fill="#dcdcdc" d="M 412.5,326.5 C 414.655,328.617 415.655,331.284 415.5,334.5C 413.833,334.5 412.167,334.5 410.5,334.5C 410.858,331.733 411.525,329.067 412.5,326.5 Z M 412.5,330.5 C 412.586,331.496 412.252,332.329 411.5,333C 415.044,333.679 415.377,332.846 412.5,330.5 Z"/></g>
<g><path style="opacity:0.621" fill="#767676" d="M 491.5,323.5 C 490.182,326.258 489.515,329.424 489.5,333C 489.667,336.167 489.833,339.333 490,342.5C 489.949,336.548 490.782,330.882 492.5,325.5C 493.833,326.833 495.167,328.167 496.5,329.5C 497.338,329.842 497.672,330.508 497.5,331.5C 497.5,332.167 497.5,332.833 497.5,333.5C 496.685,332.571 495.852,331.571 495,330.5C 494.601,330.728 494.435,331.062 494.5,331.5C 493.685,330.571 492.852,329.571 492,328.5C 491.501,333.489 491.334,338.489 491.5,343.5C 490.5,343.5 489.5,343.5 488.5,343.5C 488.5,336.5 488.5,329.5 488.5,322.5C 489.791,322.263 490.791,322.596 491.5,323.5 Z"/></g>
<g><path style="opacity:0.288" fill="#d1d1d1" d="M 229.5,322.5 C 231.099,322.232 232.432,322.566 233.5,323.5C 232.5,323.5 231.5,323.5 230.5,323.5C 230.17,329.868 230.504,336.202 231.5,342.5C 232.328,337.868 232.828,333.202 233,328.5C 233.791,329.745 234.291,331.078 234.5,332.5C 233.518,335.962 233.185,339.629 233.5,343.5C 232.348,345.688 230.848,345.688 229,343.5C 228.179,336.321 228.345,329.321 229.5,322.5 Z"/></g>
<g><path style="opacity:0.9" fill="#4e4e4e" d="M 247.5,342.5 C 245.558,337.944 244.892,332.944 245.5,327.5C 245.167,326.167 244.833,324.833 244.5,323.5C 245.209,322.596 246.209,322.263 247.5,322.5C 247.5,329.167 247.5,335.833 247.5,342.5 Z"/></g>
<g><path style="opacity:0.404" fill="#adadad" d="M 268.5,333.5 C 266.393,334.468 264.059,334.802 261.5,334.5C 261.5,336.5 261.5,338.5 261.5,340.5C 264.5,340.5 267.5,340.5 270.5,340.5C 270.737,341.791 270.404,342.791 269.5,343.5C 267.012,341.612 264.012,340.945 260.5,341.5C 260.5,338.833 260.5,336.167 260.5,333.5C 263.167,333.5 265.833,333.5 268.5,333.5 Z"/></g>
<g><path style="opacity:0.922" fill="#3a3a3a" d="M 491.5,323.5 C 492.338,323.842 492.672,324.508 492.5,325.5C 490.782,330.882 489.949,336.548 490,342.5C 489.833,339.333 489.667,336.167 489.5,333C 489.515,329.424 490.182,326.258 491.5,323.5 Z"/></g>
<g><path style="opacity:0.924" fill="#424242" d="M 181.5,331.5 C 184.833,331.5 188.167,331.5 191.5,331.5C 190.964,328.302 191.631,325.635 193.5,323.5C 193.83,329.868 193.496,336.202 192.5,342.5C 191.516,339.572 191.183,336.572 191.5,333.5C 188.167,333.5 184.833,333.5 181.5,333.5C 180.681,336.305 180.181,339.305 180,342.5C 179.333,336.167 179.333,329.833 180,323.5C 180.183,326.365 180.683,329.031 181.5,331.5 Z"/></g>
<g><path style="opacity:0.297" fill="#bcbcbc" d="M 193.5,323.5 C 194.491,329.979 194.824,336.646 194.5,343.5C 193.167,343.5 191.833,343.5 190.5,343.5C 190.5,340.5 190.5,337.5 190.5,334.5C 187.833,334.5 185.167,334.5 182.5,334.5C 182.5,337.5 182.5,340.5 182.5,343.5C 182.167,343.5 181.833,343.5 181.5,343.5C 181.5,340.167 181.5,336.833 181.5,333.5C 184.833,333.5 188.167,333.5 191.5,333.5C 191.183,336.572 191.516,339.572 192.5,342.5C 193.496,336.202 193.83,329.868 193.5,323.5 Z"/></g>
<g><path style="opacity:0.612" fill="#828282" d="M 347.5,342.5 C 348.818,339.742 349.485,336.576 349.5,333C 349.333,329.833 349.167,326.667 349,323.5C 348.829,328.533 348.329,333.533 347.5,338.5C 346.893,338.376 346.56,338.043 346.5,337.5C 347.487,332.695 347.821,327.695 347.5,322.5C 348.5,322.5 349.5,322.5 350.5,322.5C 350.5,329.5 350.5,336.5 350.5,343.5C 349.209,343.737 348.209,343.404 347.5,342.5 Z"/></g>
<g><path style="opacity:0.448" fill="#9e9e9e" d="M 245.5,327.5 C 244.892,332.944 245.558,337.944 247.5,342.5C 246.791,343.404 245.791,343.737 244.5,343.5C 244.817,339.298 244.483,335.298 243.5,331.5C 243.229,329.62 243.896,328.287 245.5,327.5 Z"/></g>
<g><path style="opacity:0.063" fill="#e7e7e7" d="M 388.5,326.5 C 387.596,325.791 387.263,324.791 387.5,323.5C 386.325,323.281 385.325,323.614 384.5,324.5C 385.933,331.349 388.433,337.682 392,343.5C 392.772,343.355 393.439,343.022 394,342.5C 395.457,336.21 397.29,330.044 399.5,324C 399.167,323.5 398.833,323 398.5,322.5C 397.265,323.34 396.265,324.34 395.5,325.5C 395.384,322.09 397.05,320.756 400.5,321.5C 399.946,328.381 398.446,335.048 396,341.5C 392.613,346.836 389.613,346.503 387,340.5C 385.596,334.126 384.096,327.793 382.5,321.5C 386.938,320.425 388.938,322.092 388.5,326.5 Z"/></g>
<g><path style="opacity:0.918" fill="#595959" d="M 388.5,326.5 C 391.158,342.337 393.491,342.003 395.5,325.5C 396.265,324.34 397.265,323.34 398.5,322.5C 398.833,323 399.167,323.5 399.5,324C 397.29,330.044 395.457,336.21 394,342.5C 393.439,343.022 392.772,343.355 392,343.5C 388.433,337.682 385.933,331.349 384.5,324.5C 385.325,323.614 386.325,323.281 387.5,323.5C 387.263,324.791 387.596,325.791 388.5,326.5 Z"/></g>
<g><path style="opacity:0.227" fill="#e2e2e2" d="M 395.5,325.5 C 393.491,342.003 391.158,342.337 388.5,326.5C 390.129,328.858 391.295,331.524 392,334.5C 392.661,331.198 393.828,328.198 395.5,325.5 Z"/></g>
<g><path style="opacity:0.036" fill="#e4e4e4" d="M 466.5,322.5 C 463.245,325.009 461.579,328.342 461.5,332.5C 461.738,340.583 465.738,344.083 473.5,343C 478.627,339.568 480.627,334.734 479.5,328.5C 481.981,335.553 479.981,341.053 473.5,345C 468.359,346.097 464.359,344.43 461.5,340C 460.039,335.087 460.205,330.254 462,325.5C 462.908,323.561 464.408,322.561 466.5,322.5 Z"/></g>
<g><path style="opacity:0.064" fill="#f6f6f6" d="M 262.5,325.5 C 262.5,326.833 262.5,328.167 262.5,329.5C 265.916,328.894 268.582,329.894 270.5,332.5C 268.582,335.106 265.916,336.106 262.5,335.5C 262.5,336.833 262.5,338.167 262.5,339.5C 265.5,339.5 268.5,339.5 271.5,339.5C 271.5,341.167 271.5,342.833 271.5,344.5C 266.637,344.819 261.97,344.486 257.5,343.5C 257.833,343.5 258.167,343.5 258.5,343.5C 262.167,343.5 265.833,343.5 269.5,343.5C 270.404,342.791 270.737,341.791 270.5,340.5C 267.5,340.5 264.5,340.5 261.5,340.5C 261.5,338.5 261.5,336.5 261.5,334.5C 264.059,334.802 266.393,334.468 268.5,333.5C 268.5,332.833 268.5,332.167 268.5,331.5C 266.393,330.532 264.059,330.198 261.5,330.5C 261.216,328.585 261.549,326.919 262.5,325.5 Z"/></g>
<g><path style="opacity:0.042" fill="#e6e6e6" d="M 466.5,338.5 C 469.167,339.833 471.833,339.833 474.5,338.5C 471.763,342.388 469.096,342.388 466.5,338.5 Z"/></g>
<g><path style="opacity:0.418" fill="#b0b0b0" d="M 324.5,333.5 C 322.393,334.468 320.059,334.802 317.5,334.5C 317.5,336.5 317.5,338.5 317.5,340.5C 320.5,340.5 323.5,340.5 326.5,340.5C 326.737,341.791 326.404,342.791 325.5,343.5C 323.012,341.612 320.012,340.945 316.5,341.5C 316.5,338.833 316.5,336.167 316.5,333.5C 319.167,333.5 321.833,333.5 324.5,333.5 Z"/></g>
<g><path style="opacity:0.846" fill="#535353" d="M 207.5,322.5 C 219.754,322.325 223.587,327.991 219,339.5C 215.58,343.753 211.413,344.587 206.5,342C 203.366,336.833 202.699,331.333 204.5,325.5C 205.833,324.833 206.833,323.833 207.5,322.5 Z M 207.5,336.5 C 207.211,333.351 207.711,330.351 209,327.5C 210.133,325.789 211.633,325.289 213.5,326C 213.167,326.333 212.833,326.667 212.5,327C 214.061,327.318 215.228,328.151 216,329.5C 216.728,332.23 216.562,334.897 215.5,337.5C 212.313,340.362 209.646,340.029 207.5,336.5 Z"/></g>
<g><path style="opacity:0.025" fill="#e2e2e2" d="M 207.5,338.5 C 207.5,337.833 207.5,337.167 207.5,336.5C 206.527,334.052 206.194,331.385 206.5,328.5C 209.553,323.657 213.053,323.324 217,327.5C 217.667,331.167 217.667,334.833 217,338.5C 213.653,342.382 210.486,342.382 207.5,338.5 Z M 207.5,336.5 C 209.646,340.029 212.313,340.362 215.5,337.5C 216.562,334.897 216.728,332.23 216,329.5C 215.228,328.151 214.061,327.318 212.5,327C 212.833,326.667 213.167,326.333 213.5,326C 211.633,325.289 210.133,325.789 209,327.5C 207.711,330.351 207.211,333.351 207.5,336.5 Z"/></g>
<g><path style="opacity:0.11" fill="#dfdfdf" d="M 207.5,322.5 C 216.503,319.515 221.503,322.848 222.5,332.5C 222.019,335.083 221.352,337.583 220.5,340C 220.833,340.333 221.167,340.667 221.5,341C 210.779,348.304 204.113,345.637 201.5,333C 201.106,329.832 202.106,327.332 204.5,325.5C 202.699,331.333 203.366,336.833 206.5,342C 211.413,344.587 215.58,343.753 219,339.5C 223.587,327.991 219.754,322.325 207.5,322.5 Z M 207.5,336.5 C 209.646,340.029 212.313,340.362 215.5,337.5C 216.562,334.897 216.728,332.23 216,329.5C 215.228,328.151 214.061,327.318 212.5,327C 212.833,326.667 213.167,326.333 213.5,326C 211.633,325.289 210.133,325.789 209,327.5C 207.711,330.351 207.211,333.351 207.5,336.5 Z"/></g>
<g><path style="opacity:0.427" fill="#959595" d="M 206.5,328.5 C 206.194,331.385 206.527,334.052 207.5,336.5C 207.5,337.167 207.5,337.833 207.5,338.5C 206.883,338.389 206.383,338.056 206,337.5C 205.195,334.304 205.362,331.304 206.5,328.5 Z"/></g>
<g><path style="opacity:0.022" fill="#ededed" d="M 364.5,322.5 C 357.87,329.335 357.87,336.168 364.5,343C 370.3,344.429 374.633,342.596 377.5,337.5C 375.286,344.772 370.619,346.939 363.5,344C 356.867,338.404 355.867,331.904 360.5,324.5C 361.577,323.295 362.91,322.628 364.5,322.5 Z"/></g>
</svg>
